# Blender v3.2.2 OBJ File: ''
# www.blender.org
mtllib untitled.mtl
o isl_Coin_01_DEF.obj
v -0.166500 0.000000 -0.037500
v -0.117733 0.117733 -0.037500
v -0.117733 0.117733 -0.022242
v -0.166500 0.000000 -0.022242
v -0.117733 -0.117733 -0.037500
v -0.117733 -0.117733 -0.022242
v -0.000000 -0.166500 -0.037500
v -0.000000 -0.166500 -0.022242
v 0.117733 -0.117733 -0.022242
v 0.117733 -0.117733 -0.037500
v 0.166500 -0.000000 -0.022242
v 0.166500 -0.000000 -0.037500
v 0.117733 0.117733 -0.022242
v 0.117733 0.117733 -0.037500
v 0.000000 0.166500 -0.022242
v 0.000000 0.166500 -0.037500
v -0.029457 0.095548 -0.010962
v 0.029457 0.095548 -0.010962
v 0.029457 -0.095548 -0.010962
v -0.029457 -0.095548 -0.010962
v 0.029457 0.095548 -0.022242
v 0.029457 -0.095548 -0.022242
v -0.029457 0.095548 -0.022242
v -0.029457 -0.095548 -0.022242
v -0.166500 0.000000 0.022242
v -0.117733 0.117733 0.022242
v -0.117733 0.117733 0.037500
v -0.166500 0.000000 0.037500
v -0.117733 -0.117733 0.022242
v -0.117733 -0.117733 0.037500
v -0.000000 -0.166500 0.022242
v -0.000000 -0.166500 0.037500
v 0.117733 -0.117733 0.037500
v 0.117733 -0.117733 0.022242
v 0.166500 -0.000000 0.037500
v 0.166500 -0.000000 0.022242
v 0.117733 0.117733 0.037500
v 0.117733 0.117733 0.022242
v 0.000000 0.166500 0.037500
v 0.000000 0.166500 0.022242
v -0.029457 -0.095548 0.010962
v 0.029457 -0.095548 0.010962
v 0.029457 0.095548 0.010962
v -0.029457 0.095548 0.010962
v 0.029457 -0.095548 0.022242
v 0.029457 0.095548 0.022242
v -0.029457 -0.095548 0.022242
v -0.029457 0.095548 0.022242
v 0.159099 0.159099 -0.037500
v 0.000000 0.225000 -0.037500
v 0.000000 0.225000 0.037500
v 0.159099 0.159099 0.037500
v 0.225000 0.000000 -0.037500
v 0.225000 -0.000000 0.037500
v 0.159099 -0.159099 -0.037500
v 0.159099 -0.159099 0.037500
v 0.000000 -0.225000 -0.037500
v 0.000000 -0.225000 0.037500
v -0.159099 -0.159099 0.037500
v -0.159099 -0.159099 -0.037500
v -0.225000 -0.000000 0.037500
v -0.225000 0.000000 -0.037500
v -0.159099 0.159099 0.037500
v -0.159099 0.159099 -0.037500
vt 0.164000 0.815600
vt 0.164000 0.815600
vt 0.164000 0.815600
vt 0.164000 0.815600
vt 0.164000 0.815600
vt 0.164000 0.815600
vt 0.164000 0.815600
vt 0.164000 0.815600
vt 0.164000 0.815600
vt 0.164000 0.815600
vt 0.164000 0.815600
vt 0.164000 0.815600
vt 0.164000 0.815600
vt 0.164000 0.815600
vt 0.164000 0.815600
vt 0.164000 0.815600
vt 0.158000 0.805600
vt 0.158000 0.805600
vt 0.158000 0.805600
vt 0.158000 0.805600
vt 0.164000 0.815600
vt 0.164000 0.815600
vt 0.164000 0.815600
vt 0.164000 0.815600
vt 0.164000 0.815600
vt 0.164000 0.815600
vt 0.164000 0.815600
vt 0.164000 0.815600
vt 0.164000 0.815600
vt 0.164000 0.815600
vt 0.164000 0.815600
vt 0.164000 0.815600
vt 0.164000 0.815600
vt 0.164000 0.815600
vt 0.164000 0.815600
vt 0.164000 0.815600
vt 0.164000 0.815600
vt 0.164000 0.815600
vt 0.164000 0.815600
vt 0.164000 0.815600
vt 0.158000 0.805600
vt 0.158000 0.805600
vt 0.158000 0.805600
vt 0.158000 0.805600
vt 0.164000 0.815600
vt 0.164000 0.815600
vt 0.164000 0.815600
vt 0.164000 0.815600
vt 0.170000 0.835600
vt 0.170000 0.835600
vt 0.170000 0.835600
vt 0.170000 0.835600
vt 0.170000 0.835600
vt 0.170000 0.835600
vt 0.170000 0.835600
vt 0.170000 0.835600
vt 0.170000 0.835600
vt 0.170000 0.835600
vt 0.170000 0.835600
vt 0.170000 0.835600
vt 0.170000 0.835600
vt 0.170000 0.835600
vt 0.170000 0.835600
vt 0.170000 0.835600
vn 0.9239 -0.3827 0.0000
vn 0.9239 0.3827 0.0000
vn 0.3827 0.9239 0.0000
vn -0.3827 0.9239 0.0000
vn -0.9239 0.3827 0.0000
vn -0.9239 -0.3827 0.0000
vn -0.3827 -0.9239 0.0000
vn 0.3827 -0.9239 0.0000
vn 0.0000 0.0000 -1.0000
vn 0.0000 1.0000 0.0000
vn -1.0000 0.0000 0.0000
vn 0.0000 -1.0000 0.0000
vn 1.0000 0.0000 0.0000
vn -0.0000 -0.0000 1.0000
usemtl isl_Coin_01
s 1
f 1/1/1 2/2/1 3/3/1 4/4/1
f 5/5/2 1/1/2 4/4/2 6/6/2
f 7/7/3 5/5/3 6/6/3 8/8/3
f 9/9/4 10/10/4 7/7/4 8/8/4
f 11/11/5 12/12/5 10/10/5 9/9/5
f 13/13/6 14/14/6 12/12/6 11/11/6
f 15/15/7 16/16/7 14/14/7 13/13/7
f 2/2/8 16/16/8 15/15/8 3/3/8
f 13/13/9 11/11/9 9/9/9
f 6/6/9 4/4/9 3/3/9
f 17/17/9 18/18/9 19/19/9 20/20/9
f 21/21/9 13/13/9 9/9/9 22/22/9
f 6/6/9 3/3/9 23/23/9 24/24/9
f 22/22/9 9/9/9 8/8/9
f 24/24/9 22/22/9 8/8/9
f 8/8/9 6/6/9 24/24/9
f 15/15/9 13/13/9 21/21/9
f 15/15/9 21/21/9 23/23/9
f 23/23/9 3/3/9 15/15/9
f 22/22/10 24/24/10 20/20/10 19/19/10
f 18/18/11 21/21/11 22/22/11 19/19/11
f 23/23/12 21/21/12 18/18/12 17/17/12
f 24/24/13 23/23/13 17/17/13 20/20/13
f 25/25/1 26/26/1 27/27/1 28/28/1
f 29/29/2 25/25/2 28/28/2 30/30/2
f 31/31/3 29/29/3 30/30/3 32/32/3
f 31/31/4 32/32/4 33/33/4 34/34/4
f 34/34/5 33/33/5 35/35/5 36/36/5
f 36/36/6 35/35/6 37/37/6 38/38/6
f 38/38/7 37/37/7 39/39/7 40/40/7
f 26/26/8 40/40/8 39/39/8 27/27/8
f 34/34/14 36/36/14 38/38/14
f 26/26/14 25/25/14 29/29/14
f 41/41/14 42/42/14 43/43/14 44/44/14
f 45/45/14 34/34/14 38/38/14 46/46/14
f 47/47/14 48/48/14 26/26/14 29/29/14
f 31/31/14 34/34/14 45/45/14
f 31/31/14 45/45/14 47/47/14
f 47/47/14 29/29/14 31/31/14
f 46/46/14 38/38/14 40/40/14
f 48/48/14 46/46/14 40/40/14
f 40/40/14 26/26/14 48/48/14
f 42/42/10 41/41/10 47/47/10 45/45/10
f 42/42/11 45/45/11 46/46/11 43/43/11
f 44/44/12 43/43/12 46/46/12 48/48/12
f 41/41/13 44/44/13 48/48/13 47/47/13
f 49/49/3 50/50/3 51/51/3 52/52/3
f 53/53/2 49/49/2 52/52/2 54/54/2
f 55/55/1 53/53/1 54/54/1 56/56/1
f 57/57/8 55/55/8 56/56/8 58/58/8
f 59/59/7 60/60/7 57/57/7 58/58/7
f 61/61/6 62/62/6 60/60/6 59/59/6
f 63/63/5 64/64/5 62/62/5 61/61/5
f 51/51/4 50/50/4 64/64/4 63/63/4
f 62/62/9 64/64/9 2/2/9 1/1/9
f 60/60/9 62/62/9 1/1/9 5/5/9
f 57/57/9 60/60/9 5/5/9 7/7/9
f 10/10/9 55/55/9 57/57/9 7/7/9
f 12/12/9 53/53/9 55/55/9 10/10/9
f 14/14/9 49/49/9 53/53/9 12/12/9
f 16/16/9 50/50/9 49/49/9 14/14/9
f 64/64/9 50/50/9 16/16/9 2/2/9
f 28/28/14 27/27/14 63/63/14 61/61/14
f 30/30/14 28/28/14 61/61/14 59/59/14
f 32/32/14 30/30/14 59/59/14 58/58/14
f 32/32/14 58/58/14 56/56/14 33/33/14
f 33/33/14 56/56/14 54/54/14 35/35/14
f 35/35/14 54/54/14 52/52/14 37/37/14
f 37/37/14 52/52/14 51/51/14 39/39/14
f 27/27/14 39/39/14 51/51/14 63/63/14
