# Blender v3.2.2 OBJ File: ''
# www.blender.org
mtllib head.mtl
o Object_8_Cube.004_Material.001_0
v -0.287027 11.315611 -0.924545
v -0.598556 12.196827 -1.133527
v 0.694337 12.196827 -1.133527
v 0.382807 11.315611 -0.924545
v 0.382808 11.752386 0.322594
v -0.287026 11.752386 0.322594
v -0.287027 11.315611 -0.924545
v 0.382807 11.315611 -0.924545
v -0.236584 13.043861 0.363304
v 0.332366 13.043861 0.363304
v 0.332365 13.013476 -0.782949
v -0.236585 13.013476 -0.782949
v 0.382808 11.752386 0.322594
v 0.694337 12.489277 0.558161
v -0.598555 12.489277 0.558162
v -0.287026 11.752386 0.322594
v 0.694337 12.489277 0.558161
v 0.332366 13.043861 0.363304
v -0.236584 13.043861 0.363304
v -0.598555 12.489277 0.558162
v -0.598556 12.196827 -1.133527
v -0.236585 13.013476 -0.782949
v 0.332365 13.013476 -0.782949
v -0.287026 11.752386 0.322594
v -0.598555 12.489277 0.558162
v -0.598556 12.196827 -1.133527
v -0.287027 11.315611 -0.924545
v 0.382807 11.315611 -0.924545
v 0.694337 12.196827 -1.133527
v 0.694337 12.489277 0.558161
v 0.382808 11.752386 0.322594
v -0.598555 12.489277 0.558162
v -0.236584 13.043861 0.363304
v -0.236585 13.013476 -0.782949
v -0.598556 12.196827 -1.133527
v 0.694337 12.196827 -1.133527
v 0.332365 13.013476 -0.782949
v 0.332366 13.043861 0.363304
v 0.694337 12.489277 0.558161
v 0.694337 12.196827 -1.133527
vt 0.625000 0.500000
vt 0.750000 0.500000
vt 0.750000 0.250000
vt 0.625000 0.250000
vt 0.375000 1.000000
vt 0.625000 1.000000
vt 0.625000 0.750000
vt 0.375000 0.750000
vt 0.375000 0.500000
vt 0.625000 0.500000
vt 0.625000 0.250000
vt 0.375000 0.250000
vt 0.125000 0.500000
vt 0.250000 0.500000
vt 0.250000 0.250000
vt 0.125000 0.250000
vt 0.250000 0.500000
vt 0.375000 0.500000
vt 0.375000 0.250000
vt 0.250000 0.250000
vt 0.750000 0.500000
vt 0.875000 0.500000
vt 0.875000 0.250000
vt 0.375000 0.750000
vt 0.500000 0.750000
vt 0.500000 0.500000
vt 0.375000 0.500000
vt 0.375000 0.250000
vt 0.500000 0.250000
vt 0.500000 0.000000
vt 0.375000 0.000000
vt 0.500000 0.750000
vt 0.625000 0.750000
vt 0.625000 0.500000
vt 0.500000 0.500000
vt 0.500000 0.250000
vt 0.625000 0.250000
vt 0.625000 0.000000
vt 0.500000 0.000000
vt 0.750000 0.250000
vn 0.0000 -0.2308 -0.9730
vn 0.0000 -0.9438 0.3305
vn 0.0000 0.9996 -0.0265
vn 0.0000 -0.3045 0.9525
vn 0.0000 0.3315 0.9435
vn 0.0000 0.3945 -0.9189
vn -0.9290 -0.3592 0.0891
vn 0.9290 -0.3592 0.0891
vn -0.8805 0.4710 -0.0536
vn -0.8806 0.4709 -0.0536
vn 0.8805 0.4710 -0.0536
vn 0.8805 0.4709 -0.0536
usemtl Material.001
s off
f 1/1/1 2/2/1 3/3/1
f 1/1/1 3/3/1 4/4/1
f 5/5/2 6/6/2 7/7/2
f 5/5/2 7/7/2 8/8/2
f 9/9/3 10/10/3 11/11/3
f 9/9/3 11/11/3 12/12/3
f 13/13/4 14/14/4 15/15/4
f 13/13/4 15/15/4 16/16/4
f 17/17/5 18/18/5 19/19/5
f 17/17/5 19/19/5 20/20/5
f 21/21/6 22/22/6 23/23/6
s 1
f 24/24/7 25/25/7 26/26/7
f 24/24/7 26/26/7 27/27/7
f 28/28/8 29/29/8 30/30/8
f 28/28/8 30/30/8 31/31/8
f 32/32/9 33/33/10 34/34/9
f 32/32/9 34/34/9 35/35/10
f 36/36/11 37/37/12 38/38/12
f 36/36/11 38/38/12 39/39/11
f 21/21/6 23/23/6 40/40/6
o Object_9_Cube.004_Material.016_0
v 0.377858 10.947522 -0.095279
v 0.377858 11.597881 -0.359455
v 0.377858 11.847405 0.300061
v 0.377859 11.197046 0.564238
v 0.377859 11.197046 0.564238
v 0.377858 11.847405 0.300061
v -0.327283 11.847405 0.300061
v -0.327283 11.197046 0.564238
v -0.327283 11.197046 0.564238
v -0.327283 11.847405 0.300061
v -0.327283 11.597881 -0.359455
v -0.327283 10.947522 -0.095279
v -0.327283 10.947522 -0.095279
v -0.327283 11.597881 -0.359455
v 0.377858 11.597881 -0.359455
v 0.377858 10.947522 -0.095279
v 0.377859 11.197046 0.564238
v -0.327283 11.197046 0.564238
v -0.327283 10.947522 -0.095279
v 0.377858 10.947522 -0.095279
v -0.327283 11.847405 0.300061
v 0.377858 11.847405 0.300061
v 0.377858 11.597881 -0.359455
v -0.327283 11.597881 -0.359455
vt 0.375000 1.000000
vt 0.625000 1.000000
vt 0.625000 0.750000
vt 0.375000 0.750000
vt 0.375000 0.750000
vt 0.625000 0.750000
vt 0.625000 0.500000
vt 0.375000 0.500000
vt 0.375000 0.500000
vt 0.625000 0.500000
vt 0.625000 0.250000
vt 0.375000 0.250000
vt 0.375000 0.250000
vt 0.625000 0.250000
vt 0.625000 0.000000
vt 0.375000 0.000000
vt 0.125000 0.500000
vt 0.375000 0.500000
vt 0.375000 0.250000
vt 0.125000 0.250000
vt 0.625000 0.500000
vt 0.875000 0.500000
vt 0.875000 0.250000
vt 0.625000 0.250000
vn 1.0000 -0.0000 0.0000
vn 0.0000 0.3763 0.9265
vn -1.0000 0.0000 0.0000
vn 0.0000 -0.3763 -0.9265
vn 0.0000 -0.9353 0.3539
vn 0.0000 0.9353 -0.3539
usemtl Material.016
s off
f 41/41/13 42/42/13 43/43/13
f 41/41/13 43/43/13 44/44/13
f 45/45/14 46/46/14 47/47/14
f 45/45/14 47/47/14 48/48/14
f 49/49/15 50/50/15 51/51/15
f 49/49/15 51/51/15 52/52/15
f 53/53/16 54/54/16 55/55/16
f 53/53/16 55/55/16 56/56/16
f 57/57/17 58/58/17 59/59/17
f 57/57/17 59/59/17 60/60/17
f 61/61/18 62/62/18 63/63/18
f 61/61/18 63/63/18 64/64/18
