# Blender v3.2.2 OBJ File: ''
# www.blender.org
mtllib tibia_gauche.mtl
o Icosphere.006_Icosphere.007
v 0.329520 1.492978 0.991184
v 0.312053 1.564309 1.011990
v 0.273850 1.486168 1.043487
v 0.275491 1.631864 0.988788
v 0.325457 1.608336 0.930928
v 0.299043 1.425298 0.973731
v 0.337978 1.468681 0.915649
v 0.349964 1.530247 0.939952
v 0.255411 1.661811 0.915705
v 0.197618 1.490263 1.059102
v 0.234157 1.582964 1.047998
v 0.145474 1.580154 1.034629
v 0.242914 1.382258 0.938566
v 0.222183 1.413753 1.015010
v 0.161805 1.387089 0.952089
v 0.302525 1.451285 0.848431
v 0.285013 1.408252 0.886103
v 0.234195 1.425897 0.820798
v 0.339506 1.559463 0.869881
v 0.332599 1.495741 0.859914
v 0.296303 1.540362 0.805245
v 0.198173 1.651238 0.987901
v 0.132818 1.459977 1.023653
v 0.196023 1.385754 0.877306
v 0.267274 1.469161 0.802689
v 0.291691 1.618636 0.847503
v 0.122922 1.631330 0.967089
v 0.163111 1.661288 0.906025
v 0.088824 1.605660 0.900078
v 0.082801 1.465867 0.961535
v 0.079897 1.554955 0.977399
v 0.062833 1.514493 0.898290
v 0.155221 1.424964 0.826174
v 0.108962 1.420157 0.885820
v 0.100594 1.482018 0.826085
v 0.225860 1.517836 0.774651
v 0.178445 1.462697 0.790272
v 0.151402 1.541352 0.784057
v 0.219893 1.649688 0.844656
v 0.227191 1.591194 0.789509
v 0.147514 1.620056 0.825387
v 0.092732 1.560779 0.834207
vt 0.181819 0.000000
vt 0.227273 0.078731
vt 0.136365 0.078731
vt 0.272728 0.157461
vt 0.318182 0.078731
vt 0.363637 0.157461
vt 0.909091 0.000000
vt 0.954545 0.078731
vt 0.863636 0.078731
vt 0.727273 0.000000
vt 0.772727 0.078731
vt 0.681818 0.078731
vt 0.545455 0.000000
vt 0.590909 0.078731
vt 0.500000 0.078731
vt 0.318182 0.236191
vt 0.090910 0.157461
vt 0.181819 0.157461
vt 0.136365 0.236191
vt 0.818182 0.157461
vt 0.909091 0.157461
vt 0.863636 0.236191
vt 0.636364 0.157461
vt 0.727273 0.157461
vt 0.681818 0.236191
vt 0.454546 0.157461
vt 0.545455 0.157461
vt 0.500000 0.236191
vt 0.227273 0.236191
vt 0.045455 0.236191
vt 0.772727 0.236191
vt 0.590909 0.236191
vt 0.409092 0.236191
vt 0.181819 0.314921
vt 0.272728 0.314921
vt 0.227273 0.393651
vt 0.000000 0.314921
vt 0.090910 0.314921
vt 0.045455 0.393651
vt 0.727273 0.314921
vt 0.818182 0.314921
vt 0.772727 0.393651
vt 0.545455 0.314921
vt 0.636364 0.314921
vt 0.590909 0.393651
vt 0.363637 0.314921
vt 0.454546 0.314921
vt 0.409092 0.393651
vt 0.500000 0.393651
vt 0.454546 0.472382
vt 0.681818 0.393651
vt 0.636364 0.472382
vt 0.863636 0.393651
vt 0.818182 0.472382
vt 0.909091 0.314921
vt 0.136365 0.393651
vt 0.090910 0.472382
vt 0.318182 0.393651
vt 0.272728 0.472382
vt 0.954545 0.236191
vt 1.000000 0.157461
vt 0.409092 0.078731
vt 0.363637 0.000000
vn 0.6869 -0.0434 0.7255
vn 0.7334 0.5391 0.4141
vn 0.6404 -0.4491 0.6231
vn 0.8602 -0.4495 0.2409
vn 0.9471 -0.2592 0.1894
vn 0.5743 0.8007 0.1703
vn -0.1522 0.1765 0.9725
vn 0.0088 -0.9237 0.3830
vn 0.4776 -0.6807 -0.5555
vn 0.8318 -0.0034 -0.5550
vn 0.2273 0.9214 0.3151
vn -0.4684 -0.0313 0.8830
vn -0.0611 -0.9981 -0.0102
vn 0.4809 -0.6250 -0.6149
vn 0.7226 0.3609 -0.5896
vn -0.5993 0.8005 -0.0017
vn -0.9661 -0.0755 0.2470
vn -0.6147 -0.5894 -0.5242
vn -0.1658 -0.1342 -0.9770
vn -0.0832 0.6781 -0.7303
vn -0.5278 0.3743 -0.7625
vn -0.2294 0.4436 -0.8664
vn -0.0606 0.1992 -0.9781
vn -0.6470 0.0140 -0.7624
vn -0.4526 -0.2238 -0.8632
vn -0.4631 -0.4446 -0.7668
vn -0.8931 -0.0430 -0.4477
vn -0.8760 -0.3911 -0.2823
vn -0.8998 -0.4335 -0.0492
vn -0.9324 0.2705 -0.2396
vn -0.9598 0.2723 0.0678
vn -0.8337 0.5010 0.2323
vn -0.6930 0.5760 -0.4336
vn -0.5588 0.7772 -0.2893
vn -0.2536 0.8803 -0.4010
vn 0.3169 0.6713 -0.6701
vn 0.4921 0.4358 -0.7536
vn 0.3427 0.1805 -0.9219
vn 0.1553 -0.3906 -0.9074
vn 0.1556 -0.4803 -0.8632
vn -0.0422 -0.6750 -0.7367
vn -0.3732 -0.8557 -0.3584
vn -0.3762 -0.9134 -0.1558
vn -0.6816 -0.7064 0.1910
vn -0.7780 -0.1346 0.6137
vn -0.6576 0.0005 0.7533
vn -0.6777 0.4593 0.5743
vn -0.3109 0.9181 0.2458
vn -0.0192 0.9913 0.1299
vn 0.0127 0.9846 -0.1744
vn 0.4327 -0.1445 -0.8899
vn 0.6939 -0.2588 -0.6719
vn 0.6947 -0.3013 -0.6531
vn -0.0308 -0.8049 -0.5926
vn 0.2609 -0.8614 -0.4357
vn 0.2606 -0.9318 -0.2526
vn -0.6115 -0.6647 0.4293
vn -0.3163 -0.7257 0.6110
vn -0.1981 -0.5364 0.8204
vn -0.3569 0.6833 0.6369
vn -0.1367 0.6129 0.7782
vn 0.1673 0.6996 0.6946
vn 0.3848 0.8586 -0.3388
vn 0.6206 0.7684 -0.1563
vn 0.7970 0.5476 -0.2550
vn 0.9807 -0.0783 -0.1790
vn 0.9792 -0.1287 -0.1570
vn 0.8226 -0.4763 -0.3106
vn 0.7857 -0.5564 -0.2704
vn 0.7499 -0.6615 0.0086
vn 0.5814 -0.8110 0.0647
vn 0.3586 -0.8248 0.4371
vn 0.4499 -0.5860 0.6739
vn 0.1551 -0.4554 0.8767
vn 0.9546 0.2974 -0.0184
vn 0.8928 0.3172 0.3199
vn 0.8988 0.0953 0.4279
vn 0.2025 0.0374 0.9786
vn 0.4429 0.1404 0.8855
vn 0.4591 0.5006 0.7339
usemtl None
s 1
f 1/1/1 2/2/1 3/3/1
f 4/4/2 2/5/2 5/6/2
f 1/7/3 3/8/3 6/9/3
f 1/10/4 6/11/4 7/12/4
f 1/13/5 7/14/5 8/15/5
f 4/4/6 5/6/6 9/16/6
f 10/17/7 11/18/7 12/19/7
f 13/20/8 14/21/8 15/22/8
f 16/23/9 17/24/9 18/25/9
f 19/26/10 20/27/10 21/28/10
f 4/4/11 9/16/11 22/29/11
f 10/17/12 12/19/12 23/30/12
f 13/20/13 15/22/13 24/31/13
f 16/23/14 18/25/14 25/32/14
f 19/26/15 21/28/15 26/33/15
f 27/34/16 28/35/16 29/36/16
f 30/37/17 31/38/17 32/39/17
f 33/40/18 34/41/18 35/42/18
f 36/43/19 37/44/19 38/45/19
f 39/46/20 40/47/20 41/48/20
f 41/48/21 38/49/21 42/50/21
f 41/48/22 40/47/22 38/49/22
f 40/47/23 36/43/23 38/49/23
f 38/45/24 35/51/24 42/52/24
f 38/45/25 37/44/25 35/51/25
f 37/44/26 33/40/26 35/51/26
f 35/42/27 32/53/27 42/54/27
f 35/42/28 34/41/28 32/53/28
f 34/41/29 30/55/29 32/53/29
f 32/39/30 29/56/30 42/57/30
f 32/39/31 31/38/31 29/56/31
f 31/38/32 27/34/32 29/56/32
f 29/36/33 41/58/33 42/59/33
f 29/36/34 28/35/34 41/58/34
f 28/35/35 39/46/35 41/58/35
f 26/33/36 40/47/36 39/46/36
f 26/33/37 21/28/37 40/47/37
f 21/28/38 36/43/38 40/47/38
f 25/32/39 37/44/39 36/43/39
f 25/32/40 18/25/40 37/44/40
f 18/25/41 33/40/41 37/44/41
f 24/31/42 34/41/42 33/40/42
f 24/31/43 15/22/43 34/41/43
f 15/22/44 30/55/44 34/41/44
f 23/30/45 31/38/45 30/37/45
f 23/30/46 12/19/46 31/38/46
f 12/19/47 27/34/47 31/38/47
f 22/29/48 28/35/48 27/34/48
f 22/29/49 9/16/49 28/35/49
f 9/16/50 39/46/50 28/35/50
f 21/28/51 25/32/51 36/43/51
f 21/28/52 20/27/52 25/32/52
f 20/27/53 16/23/53 25/32/53
f 18/25/54 24/31/54 33/40/54
f 18/25/55 17/24/55 24/31/55
f 17/24/56 13/20/56 24/31/56
f 15/22/57 23/60/57 30/55/57
f 15/22/58 14/21/58 23/60/58
f 14/21/59 10/61/59 23/60/59
f 12/19/60 22/29/60 27/34/60
f 12/19/61 11/18/61 22/29/61
f 11/18/62 4/4/62 22/29/62
f 9/16/63 26/33/63 39/46/63
f 9/16/64 5/6/64 26/33/64
f 5/6/65 19/26/65 26/33/65
f 8/15/66 20/27/66 19/26/66
f 8/15/67 7/14/67 20/27/67
f 7/14/68 16/23/68 20/27/68
f 7/12/69 17/24/69 16/23/69
f 7/12/70 6/11/70 17/24/70
f 6/11/71 13/20/71 17/24/71
f 6/9/72 14/21/72 13/20/72
f 6/9/73 3/8/73 14/21/73
f 3/8/74 10/61/74 14/21/74
f 5/6/75 8/62/75 19/26/75
f 5/6/76 2/5/76 8/62/76
f 2/5/77 1/63/77 8/62/77
f 3/3/78 11/18/78 10/17/78
f 3/3/79 2/2/79 11/18/79
f 2/2/80 4/4/80 11/18/80
o Cube.012_Cube.013
v 0.413983 0.088563 0.947109
v 0.452783 0.381552 0.928889
v 0.588254 0.398695 0.764737
v 0.639964 0.090372 0.678110
v 0.756968 0.407091 0.905697
v 0.868457 0.091987 0.869823
v 0.621379 0.388555 1.069801
v 0.643256 0.089850 1.138795
v 0.272704 0.089696 1.114652
v 0.287498 0.180703 1.127621
v 0.502962 0.089696 1.306273
v 0.428118 0.089696 1.396208
v 0.197859 0.089696 1.204587
v 0.484506 0.179303 1.291571
v 0.409662 0.157112 1.381506
v 0.212654 0.158513 1.217557
vt 0.375000 0.000000
vt 0.625000 0.000000
vt 0.625000 0.250000
vt 0.375000 0.250000
vt 0.625000 0.500000
vt 0.375000 0.500000
vt 0.625000 0.750000
vt 0.375000 0.750000
vt 0.375000 0.000000
vt 0.625000 0.000000
vt 0.125000 0.500000
vt 0.125000 0.750000
vt 0.875000 0.500000
vt 0.875000 0.750000
vt 0.125000 0.750000
vt 0.375000 0.750000
vt 0.375000 0.750000
vt 0.125000 0.750000
vt 0.875000 0.750000
vt 0.625000 0.750000
vt 0.625000 0.750000
vt 0.625000 1.000000
vt 0.375000 1.000000
vt 0.375000 0.000000
vt 0.625000 0.000000
vt 0.875000 0.750000
vn -0.7678 0.0561 -0.6382
vn 0.6073 0.3033 -0.7343
vn 0.7486 0.1968 0.6331
vn -0.7895 0.1019 -0.6052
vn 0.0073 -1.0000 -0.0012
vn 0.0038 -1.0000 0.0010
vn -0.0804 0.9959 0.0418
vn 0.0001 -1.0000 0.0015
vn 0.0001 -1.0000 0.0016
vn -0.0000 -1.0000 -0.0000
vn -0.4056 0.7828 0.4720
vn 0.7373 0.2146 0.6405
vn -0.6397 -0.0074 0.7686
vn -0.7607 0.2388 -0.6036
vn -0.1151 0.9825 0.1467
vn 0.7185 0.2875 0.6334
usemtl None
s 1
f 43/64/81 44/65/81 45/66/81 46/67/81
f 46/67/82 45/66/82 47/68/82 48/69/82
f 48/69/83 47/68/83 49/70/83 50/71/83
f 44/65/84 43/64/84 51/72/84 52/73/84
f 46/74/85 48/69/85 50/71/86 43/75/86
f 47/68/87 45/76/87 44/77/87 49/70/87
f 51/78/88 53/79/89 54/80/90 55/81/90
f 43/75/86 50/71/86 53/79/89 51/78/88
f 49/70/91 44/77/91 52/82/91 56/83/91
f 50/71/92 49/70/92 56/83/92 53/79/92
f 54/80/93 57/84/93 58/85/93 55/86/93
f 52/73/94 51/72/94 55/87/94 58/88/94
f 56/83/95 52/82/95 58/89/95 57/84/95
f 53/79/96 56/83/96 57/84/96 54/80/96
o Cube.011_Cube.012
v 0.123309 1.234487 0.960095
v 0.013778 1.460394 0.962146
v 0.171607 1.461691 0.740050
v 0.375749 1.141115 0.644425
v 0.390472 1.537102 0.891943
v 0.561525 1.244281 0.798445
v 0.225416 1.558782 1.117466
v 0.373203 1.255992 1.151484
v 0.571093 0.430328 0.754176
v 0.738993 0.456554 0.885376
v 0.612555 0.408118 1.064698
v 0.449978 0.380405 0.938434
vt 0.553478 0.000000
vt 0.625000 0.000000
vt 0.625000 0.250000
vt 0.553478 0.250000
vt 0.625000 0.500000
vt 0.553478 0.500000
vt 0.625000 0.750000
vt 0.553478 0.750000
vt 0.625000 1.000000
vt 0.553478 1.000000
vt 0.125000 0.500000
vt 0.375000 0.500000
vt 0.375000 0.750000
vt 0.125000 0.750000
vt 0.875000 0.500000
vt 0.875000 0.750000
vt 0.375000 1.000000
vt 0.375000 0.250000
vt 0.375000 0.000000
vn -0.7729 -0.3489 -0.5299
vn 0.3851 0.4788 -0.7889
vn 0.7987 0.3810 0.4658
vn -0.5492 -0.2185 0.8066
vn 0.2362 -0.9665 -0.1007
vn -0.2327 0.9494 -0.2111
vn -0.5740 -0.2408 0.7827
vn 0.8346 0.2127 0.5081
vn 0.6158 0.0500 -0.7863
vn -0.7784 -0.2910 -0.5563
usemtl None
s 1
f 59/90/97 60/91/97 61/92/97 62/93/97
f 62/93/98 61/92/98 63/94/98 64/95/98
f 64/95/99 63/94/99 65/96/99 66/97/99
f 66/97/100 65/96/100 60/98/100 59/99/100
f 67/100/101 68/101/101 69/102/101 70/103/101
f 63/94/102 61/104/102 60/105/102 65/96/102
f 69/102/103 66/97/103 59/99/103 70/106/103
f 68/101/104 64/95/104 66/97/104 69/102/104
f 67/107/105 62/93/105 64/95/105 68/101/105
f 70/108/106 59/90/106 62/93/106 67/107/106
