# Blender v3.2.2 OBJ File: ''
# www.blender.org
mtllib bust.mtl
o Object_7_Cube.004_Material.002_0
v 0.025288 8.629015 0.573906
v 0.895234 8.629015 0.573906
v 0.895234 8.644384 -0.780601
v 0.025287 8.644384 -0.780601
v -0.844658 8.629015 0.573907
v -0.844659 8.644384 -0.780601
v 1.231230 7.731082 -0.771278
v 0.895234 8.644384 -0.780601
v 0.895234 8.629015 0.573906
v 1.231230 7.695734 0.836672
v 0.025288 7.695734 0.839583
v 0.025288 8.629015 0.573906
v -0.844658 8.629015 0.573907
v -1.180655 7.695734 0.836521
v -1.180655 7.695734 0.836521
v -0.844658 8.629015 0.573907
v -0.844659 8.644384 -0.780601
v -1.180655 7.738459 -0.848736
v 0.025287 7.734770 -0.810007
v 0.025287 8.644384 -0.780601
v 0.895234 8.644384 -0.780601
v 1.231230 7.731082 -0.771278
v 0.025288 6.762452 0.824931
v -1.272655 7.271469 0.871323
v -1.272655 7.326797 -0.797529
v 0.025287 6.817780 -0.761954
v 0.025287 6.817780 -0.761954
v 0.025287 7.734770 -0.810007
v 1.231230 7.731082 -0.771278
v 1.323230 7.326797 -0.797530
v -1.272655 7.271469 0.871323
v -1.180655 7.695734 0.836521
v -1.180655 7.738459 -0.848736
v -1.272655 7.326797 -0.797529
v 0.025288 6.762452 0.824931
v 0.025288 7.695734 0.839583
v -1.180655 7.695734 0.836521
v -1.272655 7.271469 0.871323
v 1.323230 7.326797 -0.797530
v 1.231230 7.731082 -0.771278
v 1.231230 7.695734 0.836672
v 1.323230 7.271469 0.871322
v 1.323230 7.271469 0.871322
v 1.231230 7.695734 0.836672
v 0.025288 7.695734 0.839583
v 0.025288 6.762452 0.824931
v -1.272655 7.326797 -0.797529
v -1.180655 7.738459 -0.848736
v 0.025287 7.734770 -0.810007
v 0.025287 6.817780 -0.761954
v 1.323230 7.271469 0.871322
v 0.025288 6.762452 0.824931
v 0.025287 6.817780 -0.761954
v 1.323230 7.326797 -0.797530
v -1.180655 7.738459 -0.848736
v -0.844659 8.644384 -0.780601
v 0.025287 8.644384 -0.780601
v 0.025287 7.734770 -0.810007
v 1.231230 7.695734 0.836672
v 0.895234 8.629015 0.573906
v 0.025288 8.629015 0.573906
v 0.025288 7.695734 0.839583
vt 0.750000 0.500000
vt 0.875000 0.500000
vt 0.875000 0.250000
vt 0.750000 0.250000
vt 0.625000 0.500000
vt 0.625000 0.250000
vt 0.500000 1.000000
vt 0.625000 1.000000
vt 0.625000 0.750000
vt 0.500000 0.750000
vt 0.500000 0.625000
vt 0.625000 0.625000
vt 0.625000 0.500000
vt 0.500000 0.500000
vt 0.500000 0.500000
vt 0.625000 0.500000
vt 0.625000 0.250000
vt 0.500000 0.250000
vt 0.500000 0.125000
vt 0.625000 0.125000
vt 0.625000 0.000000
vt 0.500000 0.000000
vt 0.250000 0.500000
vt 0.375000 0.500000
vt 0.375000 0.250000
vt 0.250000 0.250000
vt 0.375000 0.125000
vt 0.500000 0.125000
vt 0.500000 0.000000
vt 0.375000 0.000000
vt 0.375000 0.500000
vt 0.500000 0.500000
vt 0.500000 0.250000
vt 0.375000 0.250000
vt 0.375000 0.625000
vt 0.500000 0.625000
vt 0.500000 0.500000
vt 0.375000 0.500000
vt 0.375000 1.000000
vt 0.500000 1.000000
vt 0.500000 0.750000
vt 0.375000 0.750000
vt 0.375000 0.750000
vt 0.500000 0.750000
vt 0.500000 0.625000
vt 0.375000 0.625000
vt 0.375000 0.250000
vt 0.500000 0.250000
vt 0.500000 0.125000
vt 0.375000 0.125000
vt 0.125000 0.500000
vt 0.250000 0.500000
vt 0.250000 0.250000
vt 0.125000 0.250000
vt 0.500000 0.250000
vt 0.625000 0.250000
vt 0.625000 0.125000
vt 0.500000 0.125000
vt 0.500000 0.750000
vt 0.625000 0.750000
vt 0.625000 0.625000
vt 0.500000 0.625000
vn 0.0000 0.9999 0.0113
vn 0.9394 0.3427 0.0059
vn 0.9394 0.3428 0.0058
vn -0.0016 0.2725 0.9622
vn -0.0015 0.2725 0.9621
vn -0.0014 0.2726 0.9621
vn -0.0013 0.2726 0.9621
vn -0.9390 0.3438 0.0066
vn 0.0187 0.0144 -0.9997
vn 0.0187 0.0145 -0.9997
vn 0.0186 0.0145 -0.9997
vn -0.3651 -0.9304 -0.0316
vn -0.3650 -0.9305 -0.0317
vn -0.3649 -0.9305 -0.0317
vn 0.0045 -0.0162 -0.9999
vn -0.9765 0.2156 0.0063
vn -0.9765 0.2155 0.0063
vn 0.0200 0.0135 0.9997
vn 0.9762 0.2169 0.0060
vn 0.9762 0.2168 0.0060
vn 0.9762 0.2167 0.0060
vn -0.0201 0.0134 0.9997
vn -0.0201 0.0133 0.9997
vn 0.0141 -0.0755 -0.9970
vn 0.3651 -0.9304 -0.0317
vn 0.3650 -0.9305 -0.0316
vn 0.0187 0.0502 -0.9986
vn 0.0013 0.2725 0.9621
vn 0.0013 0.2726 0.9621
vn 0.0014 0.2726 0.9621
usemtl Material.002
s off
f 1/1/1 2/2/1 3/3/1
f 1/1/1 3/3/1 4/4/1
f 5/5/1 1/1/1 4/4/1
f 5/5/1 4/4/1 6/6/1
s 1
f 7/7/2 8/8/2 9/9/2
f 7/7/2 9/9/2 10/10/3
f 11/11/4 12/12/5 13/13/6
f 11/11/4 13/13/6 14/14/7
f 15/15/8 16/16/8 17/17/8
f 15/15/8 17/17/8 18/18/8
f 19/19/9 20/20/10 21/21/11
f 19/19/9 21/21/11 22/22/10
f 23/23/12 24/24/13 25/25/14
f 23/23/12 25/25/14 26/26/12
f 27/27/15 28/28/15 29/29/15
f 27/27/15 29/29/15 30/30/15
f 31/31/16 32/32/17 33/33/16
f 31/31/16 33/33/16 34/34/16
f 35/35/18 36/36/18 37/37/18
f 35/35/18 37/37/18 38/38/18
f 39/39/19 40/40/20 41/41/21
f 39/39/19 41/41/21 42/42/20
f 43/43/22 44/44/23 45/45/22
f 43/43/22 45/45/22 46/46/22
f 47/47/24 48/48/24 49/49/24
f 47/47/24 49/49/24 50/50/24
f 51/51/25 52/52/25 53/53/26
f 51/51/25 53/53/26 54/54/26
f 55/55/27 56/56/27 57/57/27
f 55/55/27 57/57/27 58/58/27
f 59/59/28 60/60/29 61/61/29
f 59/59/28 61/61/29 62/62/30
o Object_10_Cube.004_Material.003_0
v 1.121519 10.292961 1.105264
v 0.907660 11.304340 0.581569
v -0.857084 11.304340 0.581569
v -1.070943 10.292961 1.105265
v -1.070944 10.086403 -0.947034
v -0.857085 10.953930 -0.368010
v 0.907659 10.953930 -0.368011
v 1.121518 10.086403 -0.947034
v 0.823700 8.928110 0.733675
v -0.773124 8.928110 0.733675
v -0.773125 8.939177 -0.763559
v 0.823699 8.939177 -0.763560
v -0.857084 11.304340 0.581569
v 0.907660 11.304340 0.581569
v 0.907659 10.953930 -0.368011
v -0.857085 10.953930 -0.368010
v -0.773125 8.939177 -0.763559
v -1.070944 10.086403 -0.947034
v 1.121518 10.086403 -0.947034
v 0.823699 8.939177 -0.763560
v 0.823700 8.928110 0.733675
v 1.121519 10.292961 1.105264
v -1.070943 10.292961 1.105265
v -0.773124 8.928110 0.733675
v 1.121518 10.086403 -0.947034
v 0.907659 10.953930 -0.368011
v 0.907660 11.304340 0.581569
v 1.121519 10.292961 1.105264
v -1.070943 10.292961 1.105265
v -0.857084 11.304340 0.581569
v -0.857085 10.953930 -0.368010
v -1.070944 10.086403 -0.947034
v -0.773124 8.928110 0.733675
v -1.070943 10.292961 1.105265
v -1.070944 10.086403 -0.947034
v -0.773125 8.939177 -0.763559
v 0.823699 8.939177 -0.763560
v 1.121518 10.086403 -0.947034
v 1.121519 10.292961 1.105264
v 0.823700 8.928110 0.733675
vt 0.523936 0.750000
vt 0.625000 0.750000
vt 0.625000 0.500000
vt 0.523936 0.500000
vt 0.523936 0.250000
vt 0.625000 0.250000
vt 0.625000 0.000000
vt 0.523936 0.000000
vt 0.125000 0.500000
vt 0.375000 0.500000
vt 0.375000 0.250000
vt 0.125000 0.250000
vt 0.625000 0.500000
vt 0.875000 0.500000
vt 0.875000 0.250000
vt 0.625000 0.250000
vt 0.375000 0.250000
vt 0.523936 0.250000
vt 0.523936 0.000000
vt 0.375000 0.000000
vt 0.375000 0.750000
vt 0.523936 0.750000
vt 0.523936 0.500000
vt 0.375000 0.500000
vt 0.523936 1.000000
vt 0.625000 1.000000
vt 0.625000 0.750000
vt 0.523936 0.750000
vt 0.523936 0.500000
vt 0.625000 0.500000
vt 0.625000 0.250000
vt 0.523936 0.250000
vt 0.375000 0.500000
vt 0.523936 0.500000
vt 0.523936 0.250000
vt 0.375000 0.250000
vt 0.375000 1.000000
vt 0.523936 1.000000
vt 0.523936 0.750000
vt 0.375000 0.750000
vn 0.0000 0.4598 0.8880
vn -0.0000 0.5551 -0.8318
vn 0.0000 -1.0000 -0.0074
vn 0.0000 0.9382 -0.3462
vn 0.0000 -0.1579 -0.9875
vn 0.0000 -0.2627 0.9649
vn 0.9740 0.2229 -0.0414
vn -0.9740 0.2229 -0.0414
vn -0.9727 -0.2316 0.0128
vn -0.9727 -0.2316 0.0127
vn 0.9727 -0.2316 0.0128
vn 0.9727 -0.2316 0.0127
usemtl Material.003
s off
f 63/63/31 64/64/31 65/65/31
f 63/63/31 65/65/31 66/66/31
f 67/67/32 68/68/32 69/69/32
f 67/67/32 69/69/32 70/70/32
f 71/71/33 72/72/33 73/73/33
f 71/71/33 73/73/33 74/74/33
f 75/75/34 76/76/34 77/77/34
f 75/75/34 77/77/34 78/78/34
f 79/79/35 80/80/35 81/81/35
f 79/79/35 81/81/35 82/82/35
f 83/83/36 84/84/36 85/85/36
f 83/83/36 85/85/36 86/86/36
s 1
f 87/87/37 88/88/37 89/89/37
f 87/87/37 89/89/37 90/90/37
f 91/91/38 92/92/38 93/93/38
f 91/91/38 93/93/38 94/94/38
f 95/95/39 96/96/40 97/97/39
f 95/95/39 97/97/39 98/98/39
f 99/99/41 100/100/41 101/101/42
f 99/99/41 101/101/42 102/102/41
o Object_11_Cube.004_Material.019_0
v -0.424750 8.978642 0.233484
v -0.424750 8.595549 0.233484
v -0.424750 8.595549 -0.380486
v -0.424750 8.978642 -0.380486
v -0.424750 8.978642 -0.380486
v -0.424750 8.595549 -0.380486
v 0.475325 8.595549 -0.380487
v 0.475325 8.978642 -0.380487
v 0.475325 8.978642 -0.380487
v 0.475325 8.595549 -0.380487
v 0.475325 8.595549 0.233483
v 0.475325 8.978642 0.233483
v 0.475325 8.978642 0.233483
v 0.475325 8.595549 0.233483
v -0.424750 8.595549 0.233484
v -0.424750 8.978642 0.233484
v -0.424750 8.978642 -0.380486
v 0.475325 8.978642 -0.380487
v 0.475325 8.978642 0.233483
v -0.424750 8.978642 0.233484
v 0.475325 8.595549 -0.380487
v -0.424750 8.595549 -0.380486
v -0.424750 8.595549 0.233484
v 0.475325 8.595549 0.233483
vt 0.375000 1.000000
vt 0.625000 1.000000
vt 0.625000 0.750000
vt 0.375000 0.750000
vt 0.375000 0.750000
vt 0.625000 0.750000
vt 0.625000 0.500000
vt 0.375000 0.500000
vt 0.375000 0.500000
vt 0.625000 0.500000
vt 0.625000 0.250000
vt 0.375000 0.250000
vt 0.375000 0.250000
vt 0.625000 0.250000
vt 0.625000 0.000000
vt 0.375000 0.000000
vt 0.125000 0.500000
vt 0.375000 0.500000
vt 0.375000 0.250000
vt 0.125000 0.250000
vt 0.625000 0.500000
vt 0.875000 0.500000
vt 0.875000 0.250000
vt 0.625000 0.250000
vn 1.0000 0.0000 0.0000
vn 0.0000 0.0000 1.0000
vn -1.0000 0.0000 0.0000
vn -0.0000 0.0000 -1.0000
vn 0.0000 -1.0000 0.0000
vn 0.0000 1.0000 0.0000
usemtl Material.019
s off
f 103/103/43 104/104/43 105/105/43
f 103/103/43 105/105/43 106/106/43
f 107/107/44 108/108/44 109/109/44
f 107/107/44 109/109/44 110/110/44
f 111/111/45 112/112/45 113/113/45
f 111/111/45 113/113/45 114/114/45
f 115/115/46 116/116/46 117/117/46
f 115/115/46 117/117/46 118/118/46
f 119/119/47 120/120/47 121/121/47
f 119/119/47 121/121/47 122/122/47
f 123/123/48 124/124/48 125/125/48
f 123/123/48 125/125/48 126/126/48
