# Blender v3.2.2 OBJ File: ''
# www.blender.org
mtllib genou_tibia.mtl
o Object_27_Cube.004_Material.023_0
v 1.011696 7.308505 0.290712
v 1.129901 7.030461 0.290712
v 1.129901 7.030460 -0.244700
v 1.011696 7.308504 -0.244700
v 1.011696 7.308504 -0.244700
v 1.129901 7.030460 -0.244700
v 0.432525 6.733984 -0.244700
v 0.314319 7.012029 -0.244700
v 0.314319 7.012029 -0.244700
v 0.432525 6.733984 -0.244700
v 0.432525 6.733985 0.290712
v 0.314319 7.012030 0.290712
v 0.314319 7.012030 0.290712
v 0.432525 6.733985 0.290712
v 1.129901 7.030461 0.290712
v 1.011696 7.308505 0.290712
v 1.011696 7.308504 -0.244700
v 0.314319 7.012029 -0.244700
v 0.314319 7.012030 0.290712
v 0.432525 6.733984 -0.244700
v 1.129901 7.030460 -0.244700
v 1.129901 7.030461 0.290712
v 0.432525 6.733985 0.290712
v 1.011696 7.308505 0.290712
vt 0.375000 1.000000
vt 0.625000 1.000000
vt 0.625000 0.750000
vt 0.375000 0.750000
vt 0.375000 0.750000
vt 0.625000 0.750000
vt 0.625000 0.500000
vt 0.375000 0.500000
vt 0.375000 0.500000
vt 0.625000 0.500000
vt 0.625000 0.250000
vt 0.375000 0.250000
vt 0.375000 0.250000
vt 0.625000 0.250000
vt 0.625000 0.000000
vt 0.375000 0.000000
vt 0.125000 0.500000
vt 0.375000 0.500000
vt 0.375000 0.250000
vt 0.625000 0.500000
vt 0.875000 0.500000
vt 0.875000 0.250000
vt 0.625000 0.250000
vt 0.125000 0.250000
vn 0.9203 0.3912 -0.0000
vn 0.0000 0.0000 -1.0000
vn -0.9203 -0.3912 0.0000
vn 0.0000 0.0000 1.0000
vn -0.3912 0.9203 0.0000
vn 0.3912 -0.9203 0.0000
usemtl Material.023
s off
f 1/1/1 2/2/1 3/3/1
f 1/1/1 3/3/1 4/4/1
f 5/5/2 6/6/2 7/7/2
f 5/5/2 7/7/2 8/8/2
f 9/9/3 10/10/3 11/11/3
f 9/9/3 11/11/3 12/12/3
f 13/13/4 14/14/4 15/15/4
f 13/13/4 15/15/4 16/16/4
f 17/17/5 18/18/5 19/19/5
f 20/20/6 21/21/6 22/22/6
f 20/20/6 22/22/6 23/23/6
s 1
f 17/17/5 19/19/5 24/24/5
o Object_28_Cube.004_Material.004_0
v 1.311784 4.803261 0.876031
v 1.299437 7.138494 0.684543
v 1.299437 7.132975 -0.676314
v 1.311784 4.808020 -0.198661
v 0.507518 4.702310 0.876032
v 1.311784 4.803261 0.876031
v 1.311784 4.808020 -0.198661
v 0.507518 4.707328 -0.191422
v 0.507518 4.707328 -0.191422
v 0.089976 6.646353 -0.641330
v 0.089977 6.650616 0.684543
v 0.507518 4.702310 0.876032
v 0.507518 4.702310 0.876032
v 0.089977 6.650616 0.684543
v 1.299437 7.138494 0.684543
v 1.311784 4.803261 0.876031
v 1.311784 4.808020 -0.198661
v 1.299437 7.132975 -0.676314
v 0.089976 6.646353 -0.641330
v 0.507518 4.707328 -0.191422
v 1.299437 7.138494 0.684543
v 0.089977 6.650616 0.684543
v 0.089976 6.646353 -0.641330
v 1.299437 7.132975 -0.676314
vt 0.375000 0.500000
vt 0.625000 0.500000
vt 0.625000 0.250000
vt 0.375000 0.250000
vt 0.125000 0.500000
vt 0.375000 0.500000
vt 0.375000 0.250000
vt 0.125000 0.250000
vt 0.375000 1.000000
vt 0.625000 1.000000
vt 0.625000 0.750000
vt 0.375000 0.750000
vt 0.375000 0.750000
vt 0.625000 0.750000
vt 0.625000 0.500000
vt 0.375000 0.500000
vt 0.375000 0.250000
vt 0.625000 0.250000
vt 0.625000 0.000000
vt 0.375000 0.000000
vt 0.625000 0.500000
vt 0.875000 0.500000
vt 0.875000 0.250000
vt 0.625000 0.250000
vn -1.0000 -0.0053 0.0000
vn -0.1245 0.9922 0.0044
vn -0.1242 0.9922 0.0047
vn 0.9777 0.2100 0.0001
vn 0.9777 0.2101 -0.0001
vn 0.9777 0.2101 -0.0002
vn 0.9777 0.2100 0.0002
vn 0.0253 -0.0865 -0.9959
vn -0.0403 0.2085 0.9772
vn 0.3737 -0.9275 0.0034
vn 0.3741 -0.9274 0.0030
vn 0.3736 -0.9276 0.0035
usemtl Material.004
s off
f 25/25/7 26/26/7 27/27/7
f 25/25/7 27/27/7 28/28/7
f 29/29/8 30/30/8 31/31/8
f 29/29/9 31/31/9 32/32/9
s 1
f 33/33/10 34/34/11 35/35/12
f 33/33/10 35/35/12 36/36/13
f 37/37/14 38/38/14 39/39/14
f 37/37/14 39/39/14 40/40/14
f 41/41/15 42/42/15 43/43/15
f 41/41/15 43/43/15 44/44/15
f 45/45/16 46/46/17 47/47/16
f 45/45/16 47/47/16 48/48/18
