# Blender v3.2.2 OBJ File: 'Sketchfab_2020_06_27_10_53_19.blend'
# www.blender.org
mtllib bras_droit.mtl
o Cube.011
v -0.358680 3.669398 0.740834
v -0.403467 4.567923 0.635606
v -0.047868 3.669398 0.744207
v 0.014828 4.553809 0.640186
v -0.359393 3.712358 1.040807
v -0.417991 4.698891 0.862766
v -0.047118 3.712358 1.044157
v -0.062455 4.675080 0.850638
v -0.359145 3.934186 0.700804
v -0.404148 4.364316 0.653002
v -0.022435 4.146010 0.670831
v -0.045681 3.934186 0.688384
v -0.400617 3.980447 1.026766
v -0.418228 4.327860 0.986458
v -0.390175 4.149633 1.009219
v -0.038158 3.978508 1.027245
v -0.017147 4.374781 0.979463
v -0.017595 4.300803 0.800303
v -0.392479 4.294861 0.775291
vt 0.618847 0.250000
vt 0.541667 0.364406
vt 0.509702 0.250000
vt 0.625000 0.500431
vt 0.620557 0.750000
vt 0.541903 0.750000
vt 0.549941 0.500000
vt 0.561066 1.000000
vt 0.625000 1.000000
vt 0.499408 0.750000
vt 0.541667 0.918085
vt 0.375000 0.750000
vt 0.125000 0.750000
vt 0.125000 0.500000
vt 0.375000 0.500000
vt 0.875000 0.750000
vt 0.875000 0.500000
vt 0.375000 1.000000
vt 0.458333 0.750000
vt 0.458333 1.000000
vt 0.458329 0.500000
vt 0.375000 0.250000
vt 0.458333 0.250000
vt 0.375000 0.000000
vt 0.458333 0.000000
vt 0.561066 0.000000
vt 0.625000 0.000000
vn 0.9941 -0.0859 0.0656
vn 0.0535 0.3158 0.9473
vn 0.9485 0.2345 0.2131
vn -0.9980 -0.0020 -0.0627
vn -0.9816 -0.1665 -0.0937
vn -0.9975 -0.0526 -0.0479
vn 0.9940 -0.1022 0.0397
vn -0.0296 0.3903 0.9202
vn -0.0015 -0.9899 0.1418
vn 0.0378 0.8692 -0.4931
vn -0.9950 -0.0834 -0.0552
vn -0.9976 -0.0510 -0.0479
vn -0.0055 0.0575 0.9983
vn 0.9997 -0.0223 -0.0099
vn -0.0008 0.1032 0.9947
vn -0.0143 -0.1780 -0.9839
vn 0.9939 -0.1097 -0.0077
vn -0.0243 -0.1021 -0.9945
vn 0.0056 0.1219 0.9925
vn 0.0051 -0.0786 -0.9969
vn 0.9986 -0.0498 0.0198
usemtl Material.001
s off
f 4/1/1 18/2/1 11/3/1
f 8/4/2 6/5/2 14/6/2
f 4/1/3 8/4/3 17/7/3
f 10/8/4 6/5/4 2/9/4
f 15/10/5 14/6/5 19/11/5
f 6/5/6 10/8/6 19/11/6 14/6/6
f 4/1/7 17/7/7 18/2/7
f 14/6/8 17/7/8 8/4/8
f 5/12/9 1/13/9 3/14/9 7/15/9
f 2/16/10 6/5/10 8/4/10 4/17/10
f 1/18/11 5/12/11 13/19/11 9/20/11
f 19/11/12 10/8/12 9/20/12 13/19/12 15/10/12
f 5/12/13 7/15/13 16/21/13 13/19/13
f 16/21/14 7/15/14 3/22/14 12/23/14
f 13/19/15 16/21/15 15/10/15
f 3/22/16 1/24/16 9/25/16 12/23/16
f 12/23/17 11/3/17 16/21/17
f 9/25/18 10/26/18 11/3/18 12/23/18
f 14/6/19 15/10/19 16/21/19 17/7/19
f 2/27/20 4/1/20 11/3/20 10/26/20
f 16/21/21 11/3/21 18/2/21 17/7/21
o Cube.012
v -0.285409 2.753222 1.036346
v -0.096209 2.751037 1.019761
v -0.059478 3.612463 0.741590
v -0.341654 3.659138 1.050274
v -0.054431 3.661542 1.042060
v -0.059092 3.339270 0.800610
v -0.051947 3.017043 0.930545
v -0.049558 3.383368 1.091565
v -0.346182 3.111863 1.114890
v -0.048645 3.367760 1.006470
v -0.069620 2.772810 1.137728
v -0.063260 2.946824 1.122672
v -0.281876 2.791639 1.162638
v -0.034546 3.289558 1.082310
v -0.344164 3.118280 1.098009
v -0.051468 3.147262 1.105266
v -0.364352 3.423987 1.078419
v -0.370380 3.597715 0.753261
v -0.356651 3.343788 0.815365
v -0.360678 3.338097 1.096030
v -0.348512 3.079420 0.916514
v -0.316729 2.919527 1.119649
vt 0.533546 0.748729
vt 0.458569 0.992919
vt 0.458494 0.750000
vt 0.440965 0.250000
vt 0.545098 0.427578
vt 0.458786 0.501650
vt 0.625000 0.500000
vt 0.541667 0.503044
vt 0.513694 0.500000
vt 0.541667 0.250000
vt 0.568390 0.750000
vt 0.622728 0.996979
vt 0.625000 0.748756
vt 0.542079 1.000000
vt 0.376365 1.000000
vt 0.411550 0.750000
vt 0.125000 0.750000
vt 0.125000 0.500000
vt 0.380406 0.500000
vt 0.381349 0.750000
vt 0.875000 0.500000
vt 0.875000 0.750000
vt 0.623756 0.750000
vt 0.376365 0.000000
vt 0.458569 0.000000
vt 0.375000 0.250000
vt 0.417996 0.500000
vt 0.542079 0.000000
vt 0.623295 0.000000
vt 0.625000 0.250000
vt 0.458333 0.737166
vn -0.9978 -0.0621 0.0219
vn 0.9999 -0.0105 0.0051
vn 0.9998 0.0188 0.0073
vn 0.9870 0.1598 -0.0187
vn 0.9987 0.0016 -0.0509
vn -0.0151 0.2002 0.9796
vn -0.9917 0.1046 0.0743
vn -0.9992 -0.0365 -0.0151
vn -0.9837 -0.1755 0.0403
vn -0.9861 -0.1526 -0.0660
vn -0.9985 -0.0541 -0.0127
vn -0.0257 -0.9699 0.2422
vn -0.0342 0.9831 -0.1799
vn -0.0493 -0.3339 -0.9413
vn -0.9680 -0.2311 0.0974
vn 0.1233 0.0811 0.9891
vn -0.0385 -0.2248 -0.9737
vn 0.9598 -0.2187 -0.1760
vn -0.0425 -0.3672 -0.9292
vn 0.9994 0.0096 -0.0320
vn 0.9981 -0.0447 0.0424
vn 0.9249 -0.1652 -0.3423
vn 0.0127 0.1627 0.9866
vn -0.0271 0.1421 0.9895
vn 0.0505 0.0575 0.9971
vn -0.0255 0.0071 0.9997
vn 0.9863 0.0754 0.1466
vn 0.0014 0.1495 0.9888
usemtl Material.001
s off
f 39/28/22 40/29/22 28/30/22
f 26/31/23 29/32/23 35/33/23
f 29/32/24 24/34/24 27/35/24
f 29/32/25 27/35/25 33/36/25
f 29/32/26 26/31/26 25/37/26
f 36/38/27 39/28/27 27/35/27
f 37/39/28 36/38/28 23/40/28
f 40/29/29 39/28/29 38/41/29
f 20/42/30 28/30/30 40/29/30
f 28/30/31 20/42/31 41/43/31
f 39/28/32 36/38/32 37/39/32 38/41/32
f 20/44/33 21/45/33 30/46/33 32/47/33
f 22/48/34 37/49/34 23/50/34 24/34/34
f 20/51/35 40/52/35 26/31/35 21/53/35
f 32/47/36 41/43/36 20/42/36
f 32/47/37 30/46/37 31/54/37
f 38/55/38 37/56/38 22/57/38 25/37/38
f 21/53/39 26/31/39 30/46/39
f 40/52/40 38/55/40 25/37/40 26/31/40
f 22/57/41 24/34/41 29/32/41 25/37/41
f 31/54/42 30/46/42 26/31/42 35/33/42
f 33/36/43 35/33/43 29/32/43
f 35/33/44 34/58/44 28/30/44 31/54/44
f 31/54/45 28/30/45 41/43/45 32/47/45
f 35/33/46 33/36/46 27/35/46 39/28/46
f 34/58/47 35/33/47 39/28/47
f 39/28/48 28/30/48 34/58/48
f 23/40/49 36/38/49 27/35/49 24/34/49
o Cube.013
v -0.290919 2.230072 1.075941
v -0.021457 2.240703 1.075417
v -0.037202 2.727833 1.007994
v -0.025255 2.266433 1.250385
v -0.037867 2.749882 1.171063
v -0.322188 2.486990 1.071902
v -0.017753 2.522527 1.246412
v -0.157244 2.254460 1.252932
v -0.322979 2.730290 1.170922
v -0.177050 2.515496 1.248043
v -0.015885 2.501744 1.072222
v -0.323213 2.575486 1.046819
v -0.026824 2.613704 1.040274
v -0.321776 2.621601 1.208224
v -0.020674 2.383779 1.074411
v -0.304335 2.381481 1.247965
v -0.302403 2.345109 1.074345
v -0.180428 2.705132 1.182456
v -0.093116 2.632977 1.208950
v -0.031066 2.643812 1.204641
v -0.322423 2.510138 1.247314
v -0.206310 2.627624 1.210088
v -0.019887 2.395100 1.249716
v -0.039362 2.412622 1.249064
v -0.165745 2.438821 1.249287
v -0.015237 2.509691 1.143052
v -0.019513 2.296775 1.074176
v -0.321676 2.713399 1.010079
v -0.324364 2.647862 1.200302
v -0.324223 2.497300 1.151126
v -0.291976 2.249504 1.252051
v -0.311572 2.424192 1.248411
v -0.305784 2.376861 1.192669
vt 0.440251 0.750000
vt 0.462064 0.750000
vt 0.435421 0.835657
vt 0.487839 0.555427
vt 0.466118 0.625000
vt 0.505503 0.249986
vt 0.440251 0.249405
vt 0.440251 0.001766
vt 0.375043 0.500000
vt 0.375000 0.625000
vt 0.125000 0.500004
vt 0.625000 0.250000
vt 0.565251 0.250000
vt 0.565251 -0.000769
vt 0.624858 0.000185
vt 0.505392 0.000000
vt 0.504943 0.625000
vt 0.560975 0.656425
vt 0.505453 0.749993
vt 0.402486 0.250000
vt 0.375000 0.249996
vt 0.441457 0.500137
vt 0.375531 0.000000
vt 0.565251 0.750000
vt 0.565251 0.555172
vt 0.606024 0.625000
vt 0.625000 0.500000
vt 0.625000 0.750071
vt 0.505503 0.500000
vt 0.505392 1.000000
vt 0.575413 0.751939
vt 0.565251 1.000000
vt 0.624858 1.000000
vt 0.375531 1.000000
vt 0.440251 1.000000
vt 0.570711 0.500000
vt 0.374987 0.750000
vt 0.125000 0.750000
vt 0.505503 0.351506
vt 0.875000 0.500000
vt 0.875000 0.749808
vt 0.505503 0.886997
vn -0.9851 -0.1673 0.0398
vn -0.0020 -0.0182 0.9998
vn 0.0028 -0.0187 -0.9998
vn 0.0922 -0.9849 0.1468
vn 0.0096 -0.2638 -0.9645
vn 0.0141 -0.2725 -0.9620
vn -0.0164 0.3167 0.9484
vn -0.0018 -0.0070 -1.0000
vn 0.0189 0.0044 0.9998
vn -0.0014 -0.0140 -0.9999
vn 0.9991 -0.0341 0.0267
vn -0.0325 0.3309 0.9431
vn -0.0065 0.3377 0.9412
vn -0.0219 0.3116 0.9500
vn 0.0092 0.0223 0.9997
vn -0.0069 0.0296 0.9995
vn 0.0053 0.0170 0.9998
vn 0.9997 -0.0195 0.0130
vn -0.9999 -0.0121 -0.0018
vn -0.9999 0.0081 -0.0113
vn -0.9950 -0.0994 -0.0018
vn 0.9969 0.0785 0.0024
vn 0.0382 -0.9934 0.1080
vn -0.0160 0.3405 0.9401
vn 0.9991 -0.0418 -0.0026
vn -0.0596 0.9910 -0.1195
vn 0.0019 -0.0170 -0.9999
vn -0.0022 0.3204 0.9473
vn -0.9999 0.0037 0.0109
vn 0.9940 0.1097 0.0016
vn 0.0140 -0.2731 -0.9619
vn -0.0077 0.0302 0.9995
vn -0.0228 0.3243 0.9457
vn -0.9944 -0.1052 0.0056
vn 0.0041 0.3491 0.9371
vn -0.0182 0.3007 0.9535
vn -0.0100 0.0261 0.9996
vn -0.0061 0.0083 0.9999
vn 0.9995 -0.0160 0.0263
vn -0.9999 0.0134 -0.0095
vn -0.9896 -0.1439 0.0075
vn -0.9916 -0.1247 0.0352
vn -0.9952 -0.0921 0.0338
usemtl Material.001
s off
f 57/59/50 73/60/50 74/61/50
f 65/62/51 66/63/51 57/59/51
f 52/64/52 56/65/52 58/66/52
f 45/67/53 49/68/53 43/69/53
f 44/70/54 54/71/54 53/72/54 69/73/54
f 47/74/55 53/72/55 52/64/55
f 51/75/56 63/76/56 62/77/56
f 58/66/57 56/65/57 68/78/57 43/79/57
f 45/67/58 64/80/58 49/68/58
f 42/81/59 58/66/59 43/79/59
f 43/79/60 68/78/60 45/67/60
f 63/76/61 55/82/61 62/77/61
f 63/76/62 60/83/62 59/84/62
f 59/84/63 46/85/63 50/86/63
f 65/62/64 48/87/64 51/75/64
f 49/68/65 64/80/65 65/62/65
f 66/63/66 65/62/66 51/75/66
f 64/80/67 45/67/67 68/78/67 56/65/67
f 47/88/68 70/89/68 53/90/68
f 70/89/69 69/91/69 53/90/69
f 42/92/70 74/61/70 58/93/70
f 61/94/71 54/71/71 44/70/71 46/85/71
f 72/95/72 42/96/72 43/69/72 49/68/72
f 59/84/73 50/86/73 63/76/73
f 67/97/74 64/80/74 56/65/74 52/64/74
f 50/86/75 46/85/75 44/98/75 69/99/75
f 58/66/76 47/74/76 52/64/76
f 60/83/77 63/76/77 51/75/77 48/87/77 61/94/77
f 55/82/78 70/89/78 47/88/78 71/100/78 62/77/78
f 54/71/79 61/94/79 48/87/79 67/97/79 52/64/79
f 52/64/80 53/72/80 54/71/80
f 65/62/81 57/59/81 72/95/81 49/68/81
f 70/89/82 55/82/82 63/76/82 50/86/82
f 42/92/83 72/95/83 74/61/83
f 60/83/84 61/94/84 59/84/84
f 59/84/85 61/94/85 46/85/85
f 65/62/86 64/80/86 48/87/86
f 66/63/87 51/75/87 62/77/87 73/60/87 57/59/87
f 67/97/88 48/87/88 64/80/88
f 69/91/89 70/89/89 50/86/89
f 71/100/90 47/88/90 58/93/90 74/61/90 73/60/90
f 71/100/91 73/60/91 62/77/91
f 74/61/92 72/95/92 57/59/92
o Cube.014
v 0.017622 2.486558 1.083698
v -0.004283 2.601680 1.043586
v 0.196616 2.533769 1.090095
v 0.176294 2.638258 1.049856
v 0.011027 2.531298 1.214418
v -0.010796 2.645967 1.173725
v 0.192147 2.568534 1.201515
v 0.170620 2.673067 1.161248
v 0.114252 2.507950 1.081078
v 0.092057 2.621740 1.040936
v 0.107265 2.553023 1.211822
v 0.086096 2.662109 1.173585
v 0.098004 2.600932 1.195184
v 0.195323 2.550745 1.145730
v 0.183311 2.600807 1.064449
v 0.188621 2.585010 1.069169
v 0.186585 2.593149 1.191683
v 0.021094 2.605597 1.189827
v 0.172109 2.659887 1.120957
v 0.036147 2.610432 1.041749
v 0.090640 2.631304 1.073007
v 0.103011 2.564882 1.062269
v 0.163363 2.522110 1.085779
v 0.049724 2.586623 1.051305
vt 0.375000 0.133746
vt 0.499446 0.133746
vt 0.375000 0.201827
vt 0.375000 0.250000
vt 0.498107 0.250000
vt 0.375000 0.374952
vt 0.375000 0.616254
vt 0.484865 0.616254
vt 0.526663 0.717146
vt 0.625000 0.750000
vt 0.375000 0.750000
vt 0.625000 1.000000
vt 0.375000 1.000000
vt 0.125000 0.616254
vt 0.125000 0.750000
vt 0.625000 0.616254
vt 0.815208 0.616254
vt 0.875000 0.693317
vt 0.875000 0.750000
vt 0.625000 0.500000
vt 0.716127 0.500000
vt 0.125000 0.500000
vt 0.249953 0.500000
vt 0.375000 0.500000
vt 0.125000 0.548173
vt 0.433986 0.500000
vt 0.375000 0.000000
vt 0.625000 0.000000
vt 0.569550 0.068509
vt 0.535656 0.250000
vt 0.625000 0.250000
vt 0.625000 0.408873
vt 0.875000 0.500000
vt 0.875000 0.616254
vt 0.625000 0.056683
vt 0.625000 0.133746
vn 0.1708 -0.2785 -0.9451
vn 0.9891 0.1456 -0.0214
vn -0.0513 0.3201 0.9460
vn -0.9831 -0.1825 0.0129
vn 0.2146 -0.9202 0.3273
vn -0.1774 0.9344 -0.3090
vn -0.1595 0.9404 -0.3004
vn 0.2265 -0.9207 0.3179
vn 0.0586 0.3528 0.9339
vn 0.0499 -0.3176 -0.9469
vn -0.0500 0.3286 0.9431
vn 0.9730 0.2308 -0.0019
vn 0.9812 0.1928 -0.0131
vn 0.0785 0.3586 0.9302
vn -0.1559 0.9431 -0.2936
vn -0.1939 0.9377 -0.2882
vn 0.0504 -0.3452 -0.9372
vn 0.1659 -0.3132 -0.9351
usemtl Material.001
s off
f 83/101/93 96/102/93 97/103/93
f 77/104/94 90/105/94 88/106/94
f 85/107/95 87/108/95 92/109/95 80/110/95 79/111/95
f 79/111/96 80/110/96 76/112/96 75/113/96
f 83/114/97 85/107/97 79/111/97 75/115/97
f 86/116/98 95/117/98 94/118/98 76/119/98 80/110/98
f 82/120/99 93/121/99 95/117/99 86/116/99
f 77/122/100 88/123/100 81/124/100 85/107/100 83/114/100 97/125/100
f 81/124/101 91/126/101 87/108/101 85/107/101
f 75/127/102 76/128/102 98/129/102 96/102/102 83/101/102
f 80/110/103 92/109/103 87/108/103 86/116/103
f 88/106/104 90/105/104 89/130/104 91/126/104 81/124/104
f 91/126/105 89/130/105 78/131/105 93/132/105 82/120/105
f 87/108/106 91/126/106 82/120/106 86/116/106
f 95/117/107 93/121/107 78/133/107 84/134/107
f 94/118/108 95/117/108 84/134/108
f 96/102/109 98/129/109 76/128/109 94/135/109 84/136/109
f 97/103/110 96/102/110 84/136/110 78/131/110 89/130/110 90/105/110 77/104/110
