# Blender v3.2.2 OBJ File: 'Sketchfab_2020_06_27_10_53_19.blend'
# www.blender.org
mtllib bras_gauche.mtl
o Cube.015_Cube.001
v -0.252349 4.970457 -1.502509
v -0.395766 4.590736 -0.692770
v 0.056454 4.966539 -1.467280
v 0.021399 4.589913 -0.658662
v -0.261674 5.241910 -1.368136
v -0.427707 4.765855 -0.499695
v 0.048583 5.237936 -1.332754
v -0.071609 4.753633 -0.486864
v -0.281845 4.849699 -1.265310
v -0.373947 4.670906 -0.879468
v 0.029482 4.747319 -1.037854
v 0.029794 4.830722 -1.234735
v -0.332372 5.145733 -1.124167
v -0.388120 4.999280 -0.810997
v -0.340649 5.075955 -0.968914
v 0.028005 5.138490 -1.085997
v 0.005277 4.968784 -0.724829
v 0.015370 4.821780 -0.850761
v -0.356161 4.808474 -0.905414
vt 0.618847 0.250000
vt 0.509702 0.250000
vt 0.541667 0.364406
vt 0.625000 0.500431
vt 0.541903 0.750000
vt 0.620557 0.750000
vt 0.549941 0.500000
vt 0.561066 1.000000
vt 0.625000 1.000000
vt 0.499408 0.750000
vt 0.541667 0.918085
vt 0.375000 0.750000
vt 0.375000 0.500000
vt 0.125000 0.500000
vt 0.125000 0.750000
vt 0.875000 0.750000
vt 0.875000 0.500000
vt 0.375000 1.000000
vt 0.458333 1.000000
vt 0.458333 0.750000
vt 0.458329 0.500000
vt 0.458333 0.250000
vt 0.375000 0.250000
vt 0.458333 0.000000
vt 0.375000 0.000000
vt 0.561066 0.000000
vt 0.625000 0.000000
vn 0.9966 0.0663 0.0488
vn 0.0058 0.7997 0.6004
vn 0.9136 0.1074 0.3923
vn -0.9907 -0.0360 -0.1312
vn -0.9556 -0.0144 -0.2943
vn -0.9847 -0.0062 -0.1743
vn 0.9986 0.0469 0.0253
vn -0.0847 0.7526 0.6530
vn 0.1071 0.4440 -0.8896
vn -0.0531 -0.7407 0.6697
vn -0.9787 -0.0035 -0.2054
vn -0.9849 -0.0067 -0.1727
vn -0.0246 0.9302 0.3662
vn 0.9960 -0.0253 0.0857
vn -0.0250 0.9123 0.4087
vn 0.0182 -0.8784 -0.4776
vn 1.0000 0.0042 0.0034
vn -0.0001 -0.9119 -0.4103
vn -0.0207 0.9043 0.4264
vn 0.0265 -0.9222 -0.3858
vn 0.9975 0.0115 0.0690
usemtl Material.001
s off
f 4/1/1 11/2/1 18/3/1
f 8/4/2 14/5/2 6/6/2
f 4/1/3 17/7/3 8/4/3
f 10/8/4 2/9/4 6/6/4
f 15/10/5 19/11/5 14/5/5
f 6/6/6 14/5/6 19/11/6 10/8/6
f 4/1/7 18/3/7 17/7/7
f 14/5/8 8/4/8 17/7/8
f 5/12/9 7/13/9 3/14/9 1/15/9
f 2/16/10 4/17/10 8/4/10 6/6/10
f 1/18/11 9/19/11 13/20/11 5/12/11
f 19/11/12 15/10/12 13/20/12 9/19/12 10/8/12
f 5/12/13 13/20/13 16/21/13 7/13/13
f 16/21/14 12/22/14 3/23/14 7/13/14
f 13/20/15 15/10/15 16/21/15
f 3/23/16 12/22/16 9/24/16 1/25/16
f 12/22/17 16/21/17 11/2/17
f 9/24/18 12/22/18 11/2/18 10/26/18
f 14/5/19 17/7/19 16/21/19 15/10/19
f 2/27/20 10/26/20 11/2/20 4/1/20
f 16/21/21 17/7/21 18/3/21 11/2/21
o Cube.016_Cube.009
v 0.161963 5.838730 -1.926166
v 0.312915 5.789159 -1.881450
v 0.030044 5.093312 -1.528419
v -0.227220 5.334212 -1.392584
v -0.001170 5.267118 -1.310732
v 0.130854 5.291713 -1.654953
v 0.251709 5.565146 -1.764696
v 0.105594 5.461031 -1.444824
v -0.026501 5.696484 -1.680981
v 0.116930 5.412309 -1.506798
v 0.319115 5.850791 -1.787160
v 0.258871 5.738287 -1.690581
v 0.143201 5.901165 -1.823612
v 0.153571 5.506064 -1.502200
v -0.026416 5.680912 -1.687040
v 0.193005 5.607720 -1.578047
v -0.157363 5.494475 -1.522443
v -0.210183 5.174866 -1.622552
v -0.106338 5.361380 -1.731675
v -0.122815 5.555468 -1.561754
v -0.005087 5.581547 -1.824428
v 0.069512 5.805154 -1.784254
vt 0.533546 0.748729
vt 0.458494 0.750000
vt 0.458569 0.992919
vt 0.440965 0.250000
vt 0.458786 0.501650
vt 0.545098 0.427578
vt 0.541667 0.503044
vt 0.625000 0.500000
vt 0.513694 0.500000
vt 0.541667 0.250000
vt 0.568390 0.750000
vt 0.622728 0.996979
vt 0.625000 0.748756
vt 0.542079 1.000000
vt 0.376365 1.000000
vt 0.411550 0.750000
vt 0.125000 0.750000
vt 0.381349 0.750000
vt 0.380406 0.500000
vt 0.125000 0.500000
vt 0.875000 0.500000
vt 0.623756 0.750000
vt 0.875000 0.750000
vt 0.376365 0.000000
vt 0.375000 0.250000
vt 0.458569 0.000000
vt 0.417996 0.500000
vt 0.542079 0.000000
vt 0.625000 0.250000
vt 0.623295 0.000000
vt 0.458333 0.737166
vn -0.8830 0.2931 -0.3666
vn 0.9118 -0.2312 0.3395
vn 0.9000 -0.2473 0.3590
vn 0.8354 -0.3474 0.4259
vn 0.9092 -0.2770 0.3109
vn -0.1566 0.5962 0.7874
vn -0.9466 0.2279 -0.2280
vn -0.8921 0.2524 -0.3748
vn -0.8277 0.3711 -0.4209
vn -0.8327 0.2840 -0.4753
vn -0.8847 0.2644 -0.3839
vn 0.3634 0.7984 -0.4801
vn -0.4298 -0.7459 0.5088
vn 0.1480 -0.4662 -0.8722
vn -0.7961 0.4412 -0.4142
vn 0.0256 0.6432 0.7653
vn 0.1149 -0.5624 -0.8188
vn 0.9714 -0.2228 0.0818
vn 0.1677 -0.4378 -0.8833
vn 0.9056 -0.2689 0.3281
vn 0.9216 -0.1843 0.3415
vn 0.9314 -0.3639 -0.0034
vn -0.1147 0.6182 0.7776
vn -0.1445 0.6436 0.7516
vn -0.0350 0.6833 0.7293
vn -0.0873 0.7367 0.6705
vn 0.8588 -0.1817 0.4789
vn -0.1202 0.6311 0.7664
usemtl Material.001
s off
f 39/28/22 28/29/22 40/30/22
f 26/31/23 35/32/23 29/33/23
f 29/33/24 27/34/24 24/35/24
f 29/33/25 33/36/25 27/34/25
f 29/33/26 25/37/26 26/31/26
f 36/38/27 27/34/27 39/28/27
f 37/39/28 23/40/28 36/38/28
f 40/30/29 38/41/29 39/28/29
f 20/42/30 40/30/30 28/29/30
f 28/29/31 41/43/31 20/42/31
f 39/28/32 38/41/32 37/39/32 36/38/32
f 20/44/33 32/45/33 30/46/33 21/47/33
f 22/48/34 24/35/34 23/49/34 37/50/34
f 20/51/35 21/52/35 26/31/35 40/53/35
f 32/45/36 20/42/36 41/43/36
f 32/45/37 31/54/37 30/46/37
f 38/55/38 25/37/38 22/56/38 37/57/38
f 21/52/39 30/46/39 26/31/39
f 40/53/40 26/31/40 25/37/40 38/55/40
f 22/56/41 25/37/41 29/33/41 24/35/41
f 31/54/42 35/32/42 26/31/42 30/46/42
f 33/36/43 29/33/43 35/32/43
f 35/32/44 31/54/44 28/29/44 34/58/44
f 31/54/45 32/45/45 41/43/45 28/29/45
f 35/32/46 39/28/46 27/34/46 33/36/46
f 34/58/47 39/28/47 35/32/47
f 39/28/48 34/58/48 28/29/48
f 23/40/49 24/35/49 27/34/49 36/38/49
o Cube.017_Cube.010
v 0.557285 6.282854 -2.002830
v 0.438362 6.372277 -1.777922
v 0.302452 5.913552 -1.663078
v 0.288082 6.392246 -1.869067
v 0.161947 5.934947 -1.746014
v 0.469921 6.040470 -1.977964
v 0.184444 6.164870 -1.812359
v 0.347219 6.355079 -1.981726
v 0.291716 5.847619 -1.985193
v 0.253982 6.113009 -1.946160
v 0.332917 6.139963 -1.722287
v 0.454825 5.954553 -1.948771
v 0.318109 6.027667 -1.693207
v 0.305028 5.954768 -2.024540
v 0.380935 6.244300 -1.749700
v 0.362627 6.186096 -2.076606
v 0.516921 6.175303 -1.989730
v 0.231711 5.925463 -1.878298
v 0.202212 6.028841 -1.833863
v 0.174820 6.040866 -1.778264
v 0.318806 6.064172 -2.066889
v 0.251786 5.992303 -1.928997
v 0.234256 6.278932 -1.839959
v 0.236007 6.255930 -1.852391
v 0.279182 6.186082 -1.951971
v 0.272147 6.151060 -1.757845
v 0.415841 6.322509 -1.765059
v 0.428062 5.822407 -1.901936
v 0.301910 5.928311 -2.017510
v 0.402553 6.050595 -2.019748
v 0.407461 6.309755 -2.093507
v 0.348070 6.145335 -2.074749
v 0.409831 6.175669 -2.049326
vt 0.440251 0.750000
vt 0.435421 0.835657
vt 0.462064 0.750000
vt 0.487839 0.555427
vt 0.466118 0.625000
vt 0.505503 0.249986
vt 0.440251 0.001766
vt 0.440251 0.249405
vt 0.375043 0.500000
vt 0.125000 0.500004
vt 0.375000 0.625000
vt 0.625000 0.250000
vt 0.624858 0.000185
vt 0.565251 -0.000769
vt 0.565251 0.250000
vt 0.505392 0.000000
vt 0.504943 0.625000
vt 0.505453 0.749993
vt 0.560975 0.656425
vt 0.375000 0.249996
vt 0.402486 0.250000
vt 0.441457 0.500137
vt 0.375531 0.000000
vt 0.565251 0.750000
vt 0.606024 0.625000
vt 0.565251 0.555172
vt 0.625000 0.750071
vt 0.625000 0.500000
vt 0.505503 0.500000
vt 0.505392 1.000000
vt 0.565251 1.000000
vt 0.575413 0.751939
vt 0.624858 1.000000
vt 0.375531 1.000000
vt 0.440251 1.000000
vt 0.570711 0.500000
vt 0.374987 0.750000
vt 0.125000 0.750000
vt 0.505503 0.351506
vt 0.875000 0.749808
vt 0.875000 0.500000
vt 0.505503 0.886997
vn 0.4561 -0.2024 -0.8666
vn -0.8003 0.2692 -0.5358
vn 0.8149 -0.2359 0.5295
vn 0.2405 0.9523 -0.1879
vn 0.8826 -0.0051 0.4700
vn 0.8822 0.0050 0.4708
vn -0.8881 -0.0488 -0.4571
vn 0.8122 -0.2481 0.5280
vn -0.8184 0.2566 -0.5142
vn 0.8148 -0.2416 0.5269
vn -0.4343 0.4045 0.8048
vn -0.8827 -0.0688 -0.4649
vn -0.8950 -0.0658 -0.4411
vn -0.8849 -0.0458 -0.4634
vn -0.8214 0.2370 -0.5188
vn -0.8173 0.2246 -0.5306
vn -0.8177 0.2404 -0.5231
vn -0.4295 0.3883 0.8153
vn 0.4333 -0.3573 -0.8274
vn 0.4328 -0.3778 -0.8185
vn 0.4665 -0.2774 -0.8399
vn -0.4594 0.2969 0.8372
vn 0.2984 0.9303 -0.2135
vn -0.8912 -0.0720 -0.4478
vn -0.4076 0.4040 0.8189
vn -0.2790 -0.9389 0.2015
vn 0.8146 -0.2378 0.5290
vn -0.8948 -0.0471 -0.4441
vn 0.4166 -0.3682 -0.8312
vn -0.4701 0.2677 0.8411
vn 0.8824 0.0055 0.4705
vn -0.8172 0.2237 -0.5312
vn -0.8862 -0.0586 -0.4595
vn 0.4626 -0.2701 -0.8444
vn -0.9008 -0.0731 -0.4280
vn -0.8850 -0.0338 -0.4643
vn -0.8146 0.2266 -0.5339
vn -0.8094 0.2440 -0.5342
vn -0.4415 0.3885 0.8088
vn 0.4291 -0.3820 -0.8185
vn 0.4746 -0.2332 -0.8487
vn 0.4454 -0.2440 -0.8615
vn 0.4349 -0.2749 -0.8575
usemtl Material.001
s off
f 57/59/50 74/60/50 73/61/50
f 65/62/51 57/59/51 66/63/51
f 52/64/52 58/65/52 56/66/52
f 45/67/53 43/68/53 49/69/53
f 44/70/54 69/71/54 53/72/54 54/73/54
f 47/74/55 52/64/55 53/72/55
f 51/75/56 62/76/56 63/77/56
f 58/65/57 43/78/57 68/79/57 56/66/57
f 45/67/58 49/69/58 64/80/58
f 42/81/59 43/78/59 58/65/59
f 43/78/60 45/67/60 68/79/60
f 63/77/61 62/76/61 55/82/61
f 63/77/62 59/83/62 60/84/62
f 59/83/63 50/85/63 46/86/63
f 65/62/64 51/75/64 48/87/64
f 49/69/65 65/62/65 64/80/65
f 66/63/66 51/75/66 65/62/66
f 64/80/67 56/66/67 68/79/67 45/67/67
f 47/88/68 53/89/68 70/90/68
f 70/90/69 53/89/69 69/91/69
f 42/92/70 58/93/70 74/60/70
f 61/94/71 46/86/71 44/70/71 54/73/71
f 72/95/72 49/69/72 43/68/72 42/96/72
f 59/83/73 63/77/73 50/85/73
f 67/97/74 52/64/74 56/66/74 64/80/74
f 50/85/75 69/98/75 44/99/75 46/86/75
f 58/65/76 52/64/76 47/74/76
f 60/84/77 61/94/77 48/87/77 51/75/77 63/77/77
f 55/82/78 62/76/78 71/100/78 47/88/78 70/90/78
f 54/73/79 52/64/79 67/97/79 48/87/79 61/94/79
f 52/64/80 54/73/80 53/72/80
f 65/62/81 49/69/81 72/95/81 57/59/81
f 70/90/82 50/85/82 63/77/82 55/82/82
f 42/92/83 74/60/83 72/95/83
f 60/84/84 59/83/84 61/94/84
f 59/83/85 46/86/85 61/94/85
f 65/62/86 48/87/86 64/80/86
f 66/63/87 57/59/87 73/61/87 62/76/87 51/75/87
f 67/97/88 64/80/88 48/87/88
f 69/91/89 50/85/89 70/90/89
f 71/100/90 73/61/90 74/60/90 58/93/90 47/88/90
f 71/100/91 62/76/91 73/61/91
f 74/60/92 57/59/92 72/95/92
o Cube.018_Cube.015
v 0.300058 6.037688 -1.688796
v 0.324977 5.938595 -1.618348
v 0.336342 6.155177 -1.522739
v 0.362562 6.064010 -1.459466
v 0.168359 6.033882 -1.646612
v 0.193895 5.935009 -1.576512
v 0.224628 6.154983 -1.488586
v 0.250562 6.062801 -1.426148
v 0.325833 6.102305 -1.602904
v 0.350802 6.003806 -1.533707
v 0.193986 6.097978 -1.560740
v 0.217713 6.003693 -1.494304
v 0.204265 6.056634 -1.531522
v 0.280829 6.156084 -1.505310
v 0.352930 6.096508 -1.482321
v 0.350862 6.111802 -1.490404
v 0.230948 6.132796 -1.474270
v 0.189392 5.989917 -1.583634
v 0.290971 6.063149 -1.439064
v 0.336493 5.965588 -1.582634
v 0.318646 6.003921 -1.524316
v 0.337054 6.053201 -1.568265
v 0.332844 6.134452 -1.556131
v 0.332438 5.993728 -1.590587
vt 0.375000 0.133746
vt 0.375000 0.201827
vt 0.499446 0.133746
vt 0.375000 0.250000
vt 0.375000 0.374952
vt 0.498107 0.250000
vt 0.375000 0.616254
vt 0.375000 0.750000
vt 0.625000 0.750000
vt 0.526663 0.717146
vt 0.484865 0.616254
vt 0.375000 1.000000
vt 0.625000 1.000000
vt 0.125000 0.616254
vt 0.125000 0.750000
vt 0.625000 0.616254
vt 0.875000 0.750000
vt 0.875000 0.693317
vt 0.815208 0.616254
vt 0.625000 0.500000
vt 0.716127 0.500000
vt 0.125000 0.500000
vt 0.125000 0.548173
vt 0.375000 0.500000
vt 0.249953 0.500000
vt 0.433986 0.500000
vt 0.375000 0.000000
vt 0.569550 0.068509
vt 0.625000 0.000000
vt 0.535656 0.250000
vt 0.625000 0.408873
vt 0.625000 0.250000
vt 0.875000 0.616254
vt 0.875000 0.500000
vt 0.625000 0.133746
vt 0.625000 0.056683
vn 0.9761 0.0807 -0.2018
vn 0.2418 0.6307 0.7374
vn -0.9537 -0.0270 0.2997
vn -0.2279 -0.6016 -0.7656
vn -0.2006 0.8118 -0.5483
vn 0.1894 -0.7914 0.5812
vn 0.1843 -0.7812 0.5964
vn -0.1890 0.8182 -0.5430
vn -0.9226 0.0229 0.3851
vn 0.9541 0.0243 -0.2986
vn -0.9513 -0.0323 0.3066
vn 0.2092 0.5617 0.8005
vn 0.2267 0.5926 0.7729
vn -0.9158 0.0317 0.4005
vn 0.1782 -0.7790 0.6011
vn 0.1655 -0.8001 0.5766
vn 0.9469 0.0446 -0.3184
vn 0.9679 0.1021 -0.2298
usemtl Material.001
s off
f 83/101/93 97/102/93 96/103/93
f 77/104/94 88/105/94 90/106/94
f 85/107/95 79/108/95 80/109/95 92/110/95 87/111/95
f 79/108/96 75/112/96 76/113/96 80/109/96
f 83/114/97 75/115/97 79/108/97 85/107/97
f 86/116/98 80/109/98 76/117/98 94/118/98 95/119/98
f 82/120/99 86/116/99 95/119/99 93/121/99
f 77/122/100 97/123/100 83/114/100 85/107/100 81/124/100 88/125/100
f 81/124/101 85/107/101 87/111/101 91/126/101
f 75/127/102 83/101/102 96/103/102 98/128/102 76/129/102
f 80/109/103 86/116/103 87/111/103 92/110/103
f 88/105/104 81/124/104 91/126/104 89/130/104 90/106/104
f 91/126/105 82/120/105 93/131/105 78/132/105 89/130/105
f 87/111/106 86/116/106 82/120/106 91/126/106
f 95/119/107 84/133/107 78/134/107 93/121/107
f 94/118/108 84/133/108 95/119/108
f 96/103/109 84/135/109 94/136/109 76/129/109 98/128/109
f 97/102/110 77/104/110 90/106/110 89/130/110 78/132/110 84/135/110 96/103/110
