# Blender v3.2.2 OBJ File: 'Sketchfab_2020_06_27_10_53_19.blend'
# www.blender.org
mtllib jambe_droite.mtl
o Cube.005
v -0.289641 1.827191 0.464381
v -0.346143 2.688565 0.047500
v 0.058164 1.820258 0.407689
v 0.236223 2.663517 0.074673
v -0.274382 1.876506 0.743466
v -0.356638 2.764746 0.565313
v 0.213682 2.754781 0.564447
v -0.343220 2.301671 0.182945
v 0.169884 2.296387 0.662854
v 0.194381 2.350638 0.528867
v 0.202159 2.535511 0.665112
v 0.154341 2.145425 0.289453
v 0.112365 2.102530 0.679001
v -0.339139 2.501651 0.126424
v 0.190213 2.320142 0.221648
v -0.313088 2.094434 0.703553
v 0.075544 1.872386 0.701895
v -0.328706 2.342467 0.678207
v -0.048565 2.581743 0.616374
v -0.319506 2.339458 0.456514
v -0.326930 2.198453 0.269802
v -0.342953 2.404175 0.653008
vt 0.500000 0.000000
vt 0.569404 0.000000
vt 0.509225 0.252177
vt 0.147738 0.750000
vt 0.125000 0.499821
vt 0.358064 0.502608
vt 0.375000 0.750000
vt 0.418853 0.750000
vt 0.375000 0.977262
vt 0.375000 0.250179
vt 0.451755 0.250000
vt 0.375000 0.485672
vt 0.467102 0.000000
vt 0.375000 0.000000
vt 0.500000 0.415280
vt 0.554904 0.500000
vt 0.478213 0.500000
vt 0.566062 0.614589
vt 0.624507 0.750579
vt 0.621878 0.250000
vt 0.624962 0.499616
vt 0.500000 0.874020
vt 0.500000 1.000000
vt 0.467102 1.000000
vt 0.488805 0.749211
vt 0.625000 0.000000
vt 0.567699 0.996905
vt 0.513100 0.750000
vt 0.875000 0.750000
vt 0.875000 0.500000
vt 0.422689 0.500000
vt 0.625000 1.000000
vn 0.0790 -0.2726 -0.9589
vn 0.0089 -0.9848 0.1737
vn -0.9838 -0.1597 0.0820
vn 0.9583 -0.2856 -0.0060
vn -0.1511 -0.4707 -0.8692
vn 0.9830 -0.1339 0.1255
vn -0.2025 -0.0683 0.9769
vn 0.9923 -0.1050 0.0652
vn -0.9995 0.0155 0.0280
vn -0.0402 -0.6470 -0.7614
vn 0.0263 -0.3880 -0.9213
vn 0.0291 -0.3966 -0.9175
vn 0.1179 0.1991 0.9729
vn -0.9958 0.0430 0.0804
vn -0.9980 -0.0611 0.0172
vn -0.0343 0.1632 0.9860
vn -0.9749 -0.2181 -0.0445
vn 0.0337 0.9861 -0.1628
vn 0.9989 -0.0474 -0.0039
vn 0.0087 0.4168 0.9089
vn 0.9848 -0.1486 0.0898
vn 0.9669 -0.2502 0.0503
vn 0.0007 -0.3419 -0.9397
vn 0.0800 -0.3749 -0.9236
vn -0.0211 0.2355 0.9716
vn 0.0557 0.0900 0.9944
vn 0.0402 0.1041 0.9938
vn 0.0562 0.0663 0.9962
vn -0.9990 -0.0433 -0.0139
vn -0.9954 -0.0953 0.0089
vn -0.9990 -0.0415 -0.0149
usemtl Material.001
s off
f 8/1/1 14/2/1 15/3/1
f 1/4/2 3/5/2 17/6/2 5/7/2
f 16/8/3 1/9/3 5/7/3
f 3/10/4 12/11/4 17/12/4
f 21/13/5 3/10/5 1/14/5
f 10/15/6 11/16/6 9/17/6
f 19/18/7 11/16/7 6/19/7
f 4/20/8 7/21/8 15/3/8
f 20/22/9 8/23/9 21/24/9 18/25/9
f 12/11/10 21/13/10 8/1/10
f 2/26/11 4/20/11 14/2/11
f 15/3/12 14/2/12 4/20/12
f 16/8/13 5/7/13 17/6/13
f 14/27/14 8/23/14 20/22/14
f 21/24/15 16/8/15 18/25/15
f 19/18/16 22/28/16 18/25/16 9/17/16 11/16/16
f 20/22/17 18/25/17 22/28/17 14/27/17
f 2/29/18 6/19/18 7/21/18 4/30/18
f 7/21/19 11/16/19 10/15/19 15/3/19
f 6/19/20 11/16/20 7/21/20
f 17/12/21 12/11/21 13/31/21
f 13/31/22 12/11/22 15/3/22 10/15/22 9/17/22
f 3/10/23 21/13/23 12/11/23
f 8/1/24 15/3/24 12/11/24
f 19/18/25 6/19/25 22/28/25
f 17/6/26 13/31/26 16/8/26
f 16/8/27 9/17/27 18/25/27
f 9/17/28 16/8/28 13/31/28
f 2/32/29 14/27/29 6/19/29
f 1/9/30 16/8/30 21/24/30
f 14/27/31 22/28/31 6/19/31
o Cube.006
v -0.708262 0.598593 0.637818
v -0.521393 0.529516 0.659753
v -0.279273 1.891001 0.728977
v -0.062632 1.592721 0.784584
v -0.369612 1.364677 0.828434
v -0.510856 1.451159 0.820439
v -0.306945 1.057196 0.845340
v -0.409100 0.810893 0.826718
v -0.714766 0.610541 0.828325
v -0.562251 0.735563 0.844691
v -0.659597 0.849814 0.813167
v -0.546512 0.960110 0.800325
v -0.614422 1.057594 0.833077
v -0.097637 1.463529 0.482137
v -0.177115 1.305892 0.485617
v 0.011806 1.764690 0.743933
v -0.189177 1.310033 0.820073
v -0.526230 0.537783 0.836953
v -0.400566 0.799078 0.595496
v -0.292088 1.020517 0.531770
v 0.016034 1.719852 0.436104
v -0.572974 1.122710 0.535438
v -0.300369 1.291767 0.502469
v -0.394905 1.588590 0.482965
v -0.511982 1.369730 0.498933
v -0.258204 1.856871 0.447071
v -0.667637 0.760533 0.602524
v -0.541175 1.410146 0.796902
vt 0.546039 0.000000
vt 0.589748 0.000000
vt 0.546039 0.170739
vt 0.375522 0.500000
vt 0.377182 0.750000
vt 0.125000 0.750000
vt 0.125000 0.499995
vt 0.412015 0.655693
vt 0.380109 0.752927
vt 0.625000 0.496616
vt 0.623163 0.750000
vt 0.603184 0.500000
vt 0.553956 0.750000
vt 0.456948 0.661508
vt 0.437261 0.500000
vt 0.492860 0.500000
vt 0.471573 0.750000
vt 0.427822 0.753925
vt 0.553166 0.638272
vt 0.554367 0.250000
vt 0.549104 0.496805
vt 0.592983 0.250000
vt 0.625000 0.248254
vt 0.439994 0.250000
vt 0.625000 0.000000
vt 0.411518 0.000000
vt 0.500211 0.000000
vt 0.491764 0.249973
vt 0.589340 0.998386
vt 0.546039 1.000336
vt 0.546039 0.759718
vt 0.628384 0.500000
vt 0.875000 0.501746
vt 0.870931 0.750000
vt 0.411518 1.000000
vt 0.493100 0.998827
vt 0.375000 0.250005
vt 0.375155 0.000000
vt 0.625000 0.995931
vt 0.375155 1.000000
vn -0.0085 -0.0683 -0.9976
vn -0.3560 -0.9336 0.0403
vn -0.0652 -0.0509 0.9966
vn 0.0421 0.2126 0.9762
vn 0.0168 0.1950 0.9806
vn -0.1304 -0.1338 0.9824
vn 0.1244 -0.0162 0.9921
vn 0.2514 -0.1463 0.9568
vn -0.0318 0.0404 0.9987
vn 0.9138 -0.4043 0.0380
vn 0.9165 -0.3939 0.0700
vn 0.9073 -0.4188 0.0379
vn 0.9209 -0.3860 0.0537
vn -0.0845 -0.0897 -0.9924
vn 0.0004 -0.1822 -0.9833
vn -0.0342 -0.1378 -0.9899
vn -0.0968 -0.2312 -0.9681
vn -0.8795 0.4621 -0.1140
vn -0.7474 0.6447 -0.1607
vn 0.4206 0.9014 -0.1027
vn -0.9737 0.2209 -0.0565
vn 0.1382 0.3126 0.9398
vn 0.0467 0.1038 0.9935
vn -0.0810 0.1653 0.9829
vn -0.0397 0.0468 0.9981
vn 0.0668 0.0684 0.9954
vn -0.0557 -0.0523 -0.9971
vn -0.9683 0.2410 -0.0652
vn 0.8903 -0.4469 0.0879
vn 0.9211 -0.3850 0.0579
vn 0.9289 -0.3603 0.0862
vn 0.9155 -0.4000 0.0436
vn 0.9044 -0.4167 0.0916
vn 0.9184 -0.3919 0.0539
vn -0.0742 -0.1093 -0.9912
vn -0.0652 -0.1483 -0.9868
vn 0.0244 -0.2421 -0.9699
vn 0.0052 -0.2142 -0.9768
vn -0.9793 0.2015 -0.0188
vn -0.8905 0.4366 -0.1282
vn -0.8885 0.4429 -0.1200
vn -0.9674 0.2204 -0.1247
vn -0.9717 0.2196 -0.0873
vn -0.9712 0.2332 -0.0478
usemtl Material.001
s off
f 47/33/32 46/34/32 45/35/32
f 40/36/33 31/37/33 23/38/33 24/39/33
f 32/40/34 31/41/34 40/36/34
f 38/42/35 25/43/35 26/44/35
f 25/43/36 28/45/36 26/44/36
f 34/46/37 30/47/37 29/48/37 35/49/37
f 32/40/38 40/36/38 30/47/38
f 33/50/39 34/46/39 35/49/39
f 35/49/40 27/51/40 28/45/40
f 37/52/41 26/44/41 39/53/41
f 36/54/42 43/55/42 38/42/42
f 37/52/43 39/53/43 29/48/43
f 30/47/44 41/56/44 29/48/44
f 46/34/45 48/57/45 43/55/45
f 49/58/46 44/59/46 41/56/46
f 44/59/47 47/33/47 45/35/47
f 42/60/48 41/56/48 44/59/48
f 46/61/49 47/62/49 28/45/49
f 28/45/50 47/62/50 50/63/50
f 38/64/51 43/65/51 48/66/51 25/43/51
f 33/50/52 49/67/52 31/41/52
f 27/51/53 39/53/53 28/45/53
f 28/45/54 39/53/54 26/44/54
f 31/41/55 32/40/55 30/47/55 34/46/55 33/50/55
f 35/49/56 29/48/56 27/51/56
f 29/48/57 39/53/57 27/51/57
f 46/34/58 36/54/58 37/52/58 45/35/58
f 49/67/59 33/50/59 44/68/59
f 26/44/60 37/52/60 36/54/60
f 36/54/61 38/42/61 26/44/61
f 42/60/62 37/52/62 29/48/62
f 40/36/63 24/69/63 41/56/63
f 41/56/64 42/60/64 29/48/64
f 30/47/65 40/36/65 41/56/65
f 37/52/66 42/60/66 44/59/66 45/35/66
f 46/34/67 43/55/67 36/54/67
f 24/69/68 23/70/68 41/56/68
f 41/56/69 23/70/69 49/58/69
f 50/63/70 44/68/70 35/49/70 28/45/70
f 46/61/71 28/45/71 48/71/71
f 25/43/72 48/71/72 28/45/72
f 44/68/73 50/63/73 47/62/73
f 35/49/74 44/68/74 33/50/74
f 31/41/75 49/67/75 23/72/75
o Cube.007
v -0.875954 0.198645 0.570777
v -0.709841 0.545391 0.662668
v -0.133197 -0.014954 0.638267
v -0.552164 0.496652 0.676982
v -0.863464 0.185396 0.885273
v -0.733225 0.557918 0.834504
v -0.155639 -0.017905 0.950208
v -0.585693 0.512315 0.847897
v -0.823410 0.306030 0.870516
v -0.561493 0.484178 0.853848
v -0.747781 0.501974 0.842732
v -0.216904 0.087298 0.934573
v -0.178861 0.029924 0.945430
v -0.346089 0.252872 0.901295
v -0.107552 -0.027517 0.787777
v -0.467560 0.418605 0.675813
v -0.671020 0.256816 0.622534
v -0.150513 0.038547 0.656030
v -0.740872 0.532705 0.656432
v -0.345683 0.254821 0.665233
v -0.489470 0.086282 0.605860
v -0.759214 0.365760 0.628274
v -0.749456 0.405187 0.635542
v -0.745176 0.481767 0.846034
v -0.785463 0.408149 0.855909
v -0.796937 0.307548 0.672240
v -0.743370 0.537913 0.656886
v -0.863404 0.230705 0.879358
v -0.811714 0.297487 0.608803
vt 0.532009 0.000000
vt 0.552312 0.000000
vt 0.500000 0.050214
vt 0.514739 0.502607
vt 0.499989 0.500400
vt 0.500000 0.249339
vt 0.550872 0.750000
vt 0.500000 0.944181
vt 0.500000 0.750000
vt 0.875000 0.750000
vt 0.625000 0.750000
vt 0.625000 0.500000
vt 0.875000 0.500000
vt 0.375000 0.750022
vt 0.417763 0.750000
vt 0.375000 0.999898
vt 0.375000 0.250000
vt 0.375000 0.367191
vt 0.483995 0.000000
vt 0.375000 0.108987
vt 0.375000 0.000000
vt 0.625000 0.250000
vt 0.617226 0.489881
vt 0.605523 0.250000
vt 0.558437 0.250000
vt 0.559380 0.500000
vt 0.375000 0.500000
vt 0.614370 0.000000
vt 0.532009 1.000000
vt 0.483995 1.000000
vt 0.589325 0.750000
vt 0.614370 1.000000
vt 0.552312 1.000000
vt 0.125000 0.641013
vt 0.125000 0.500000
vt 0.242191 0.500000
vt 0.125102 0.750000
vt 0.597994 0.750000
vt 0.625000 0.000000
vt 0.616486 0.000000
vt 0.616486 1.000000
vt 0.625000 1.000000
vn 0.1222 0.1506 -0.9810
vn 0.8209 0.5627 0.0972
vn -0.9359 0.3303 -0.1224
vn 0.2976 0.9542 -0.0291
vn -0.9992 0.0065 0.0400
vn 0.9298 0.3443 -0.1306
vn 0.1622 0.2607 -0.9517
vn 0.6938 0.7149 0.0870
vn 0.7878 0.6159 0.0064
vn 0.8024 0.5967 0.0063
vn 0.7405 0.6657 0.0924
vn 0.8662 0.4435 0.2302
vn -0.0470 0.1585 0.9862
vn 0.1295 0.1543 -0.9795
vn 0.1294 0.1585 -0.9788
vn 0.1327 0.1515 -0.9795
vn 0.1320 0.1614 -0.9780
vn 0.1863 0.3634 -0.9128
vn -0.8019 0.5901 0.0932
vn -0.9977 0.0679 -0.0044
vn -0.8757 0.4592 -0.1493
vn 0.1437 0.1677 -0.9753
vn -0.2743 -0.9613 -0.0274
vn -0.0447 0.1617 0.9858
vn -0.0729 0.0640 0.9953
vn -0.0417 0.1615 0.9860
vn -0.0440 0.1556 0.9868
vn -0.0440 0.1565 0.9867
vn -0.0532 0.1426 0.9883
vn 0.7423 0.6673 0.0601
vn 0.7136 0.6897 0.1225
vn 0.1371 0.1606 -0.9774
vn 0.1775 0.2811 -0.9431
vn -0.9097 0.3766 -0.1750
vn -0.8981 -0.4192 -0.1330
vn -0.8797 0.4746 -0.0295
vn -0.8240 0.5639 -0.0552
vn -0.8341 0.5511 -0.0233
usemtl Material.001
s off
f 72/73/76 73/74/76 67/75/76
f 62/76/77 63/77/77 68/78/77
f 75/79/78 76/80/78 59/81/78
f 52/82/79 56/83/79 58/84/79 54/85/79
f 55/86/80 78/87/80 51/88/80
f 53/89/81 68/78/81 65/90/81
f 79/91/82 71/92/82 51/93/82
f 54/94/83 58/84/83 60/95/83 66/96/83
f 70/97/84 64/98/84 62/76/84
f 64/98/85 70/97/85 66/96/85
f 65/90/86 68/78/86 63/77/86
f 63/77/87 57/99/87 65/90/87
f 62/76/88 75/79/88 59/81/88
f 67/75/89 73/74/89 70/97/89
f 68/78/90 67/75/90 70/97/90
f 66/96/91 73/74/91 69/100/91
f 73/74/92 66/96/92 70/97/92
f 68/78/93 53/89/93 71/92/93
f 76/80/94 72/101/94 79/102/94
f 74/103/95 69/104/95 73/105/95
f 74/103/96 73/105/96 75/79/96
f 67/75/97 79/91/97 72/73/97
f 71/106/98 53/107/98 65/108/98 57/99/98 55/86/98 51/109/98
f 75/79/99 62/76/99 64/98/99 60/95/99
f 63/77/100 55/86/100 57/99/100
f 61/110/101 60/95/101 58/84/101 56/83/101
f 60/95/102 61/110/102 74/103/102
f 74/103/103 75/79/103 60/95/103
f 55/86/104 63/77/104 62/76/104 59/81/104 78/87/104
f 68/78/105 70/97/105 62/76/105
f 60/95/106 64/98/106 66/96/106
f 52/111/107 54/94/107 66/96/107 69/100/107 77/112/107
f 67/75/108 68/78/108 71/92/108 79/91/108
f 76/80/109 75/79/109 73/105/109 72/101/109
f 74/103/110 77/113/110 69/104/110
f 61/110/111 56/83/111 52/114/111 77/113/111 74/103/111
f 78/87/112 59/81/112 76/80/112 79/102/112
f 51/88/113 78/87/113 79/102/113
