# Blender v3.2.2 OBJ File: 'Sketchfab_2020_06_27_10_53_19.blend'
# www.blender.org
mtllib tronc.mtl
o Cube.002_Cube
v 0.102241 4.739920 -0.465911
v -0.632556 4.498230 0.591434
v 0.286935 4.422070 0.606969
v 0.237799 3.955441 -0.444835
v 0.218960 3.947929 0.461106
v 0.285507 4.427183 -0.031685
v -0.487577 3.938771 0.468593
v -0.431482 4.847477 -0.462117
v -0.471379 3.914406 -0.436546
v -0.614406 4.553742 0.062234
v 0.196565 4.604915 -0.498326
v 0.250672 4.455258 -0.587802
v -0.435938 4.858993 0.509112
v 0.141273 4.737037 0.472238
v -0.608075 4.500808 -0.560323
v -0.574038 4.274437 -0.092986
vt 0.384028 0.753852
vt 0.126849 0.750000
vt 0.372706 0.501290
vt 0.501342 0.753862
vt 0.514017 0.874800
vt 0.125000 0.500663
vt 0.621083 0.493805
vt 0.498763 0.500936
vt 0.502087 0.365315
vt 0.375042 0.499013
vt 0.378679 0.249400
vt 0.625000 0.251836
vt 0.562500 0.245507
vt 0.515693 0.246140
vt 0.500000 0.000000
vt 0.623511 -0.000400
vt 0.623510 0.999663
vt 0.623761 0.749353
vt 0.378279 0.998185
vt 0.444531 0.902176
vt 0.378279 0.000344
vt 0.500000 1.000378
vt 0.624546 0.748566
vt 0.873164 0.499993
vt 0.874666 0.750406
vt 0.627989 0.500000
vn 0.0132 -0.9995 0.0271
vn -0.9694 -0.2384 -0.0583
vn 0.0577 -0.9983 -0.0071
vn 0.9074 0.4202 0.0013
vn 0.9900 -0.1409 -0.0033
vn 0.9929 -0.1176 0.0197
vn 0.8248 0.5626 0.0571
vn 0.0272 0.3477 -0.9372
vn -0.8568 0.5156 -0.0100
vn -0.9641 -0.2653 -0.0101
vn 0.0047 -0.2751 -0.9614
vn 0.0463 0.2637 -0.9635
vn -0.9895 -0.1442 0.0022
vn -0.9842 -0.1700 0.0499
vn 0.8828 0.4683 -0.0353
vn 0.1508 0.4469 0.8818
vn -0.0427 -0.2159 -0.9755
vn 0.9969 -0.0442 -0.0647
vn 0.0140 -0.2958 0.9551
vn 0.9318 0.3609 -0.0401
vn 0.0019 0.2215 0.9752
vn -0.0349 -0.2230 0.9742
vn -0.9709 -0.2355 -0.0434
vn 0.1975 0.9803 -0.0107
vn 0.2064 0.9785 -0.0056
vn -0.8844 0.4642 -0.0485
vn -0.8759 0.4821 0.0205
usemtl Material.001
s off
f 7/1/1 9/2/1 5/3/1
f 2/4/2 10/5/2 7/1/2
f 9/2/3 4/6/3 5/3/3
f 14/7/4 3/8/4 6/9/4
f 3/8/5 5/10/5 6/9/5
f 4/11/6 6/9/6 5/10/6
f 1/12/7 6/9/7 11/13/7
f 11/13/8 12/14/8 15/15/8 8/16/8
f 8/17/9 10/5/9 13/18/9
f 9/19/10 7/1/10 16/20/10
f 12/14/11 4/11/11 9/21/11
f 8/16/12 1/12/12 11/13/12
f 16/20/13 10/5/13 15/22/13
f 10/5/14 16/20/14 7/1/14
f 14/7/15 6/9/15 1/12/15
f 14/7/16 13/18/16 3/8/16
f 15/15/17 12/14/17 9/21/17
f 12/14/18 6/9/18 4/11/18
f 3/8/19 7/1/19 5/3/19
f 6/9/20 12/14/20 11/13/20
f 3/8/21 13/18/21 2/4/21
f 7/1/22 3/8/22 2/4/22
f 9/19/23 16/20/23 15/22/23
f 13/23/24 1/24/24 8/25/24
f 13/23/25 14/26/25 1/24/25
f 15/22/26 10/5/26 8/17/26
f 10/5/27 2/4/27 13/18/27
o Cube.003
v 0.157498 3.332871 -0.372137
v 0.170276 3.888672 -0.424937
v -0.297195 3.332238 0.343598
v -0.434133 3.843795 0.406150
v 0.190645 3.892352 0.430571
v 0.142226 3.799533 -0.054225
v 0.172088 3.819391 -0.147862
v 0.175563 3.637219 -0.190880
v 0.153076 3.535394 0.356122
v 0.160499 3.339828 0.377479
v 0.162714 3.582012 -0.381535
v -0.006929 3.805232 -0.420943
v -0.328998 3.479341 -0.364039
v -0.283348 3.329541 -0.324383
v -0.348833 3.536025 0.377390
v -0.455655 3.844953 -0.427754
v -0.316943 3.346092 -0.107859
v -0.374257 3.666285 -0.118591
v -0.370430 3.419954 -0.393112
v -0.152130 3.748795 0.376520
vt 0.125000 0.500000
vt 0.377880 0.495521
vt 0.375000 0.742676
vt 0.125000 0.750000
vt 0.375000 0.250000
vt 0.486376 0.250996
vt 0.465448 0.500000
vt 0.595762 0.339687
vt 0.621894 0.250000
vt 0.624767 0.500000
vt 0.583110 0.369725
vt 0.589318 0.170818
vt 0.625000 0.000000
vt 0.624429 0.749976
vt 0.538976 0.931493
vt 0.381454 0.907769
vt 0.564913 0.633241
vt 0.473538 0.750000
vt 0.374736 -0.004674
vt 0.417515 0.000000
vt 0.445518 0.000000
vt 0.375000 1.000000
vt 0.417515 1.000000
vt 0.875000 0.500000
vt 0.875000 0.750000
vt 0.510928 0.310148
vt 0.625396 1.000853
vt 0.445518 1.000000
vn 0.0123 -0.9999 0.0069
vn 0.9998 -0.0211 -0.0038
vn -0.0751 0.1054 0.9916
vn 0.9974 -0.0677 -0.0235
vn 0.9928 -0.0873 -0.0824
vn 0.0092 -0.0673 -0.9977
vn 0.0441 -0.1411 -0.9890
vn -0.9827 -0.1776 -0.0520
vn 0.0093 -0.0820 0.9966
vn -0.0114 -0.3284 0.9445
vn 0.0807 -0.0705 0.9942
vn 0.1416 -0.1269 0.9818
vn 0.0906 -0.2290 -0.9692
vn -0.9344 -0.3506 0.0631
vn -0.0736 0.9973 0.0003
vn 0.9995 -0.0084 -0.0316
vn 0.6922 -0.7184 0.0684
vn 0.9935 0.0826 0.0780
vn 0.9928 -0.1147 -0.0337
vn -0.0003 -0.1718 -0.9851
vn -0.1074 -0.0352 -0.9936
vn 0.0011 -0.1731 -0.9849
vn -0.9244 -0.3808 0.0233
vn -0.9618 -0.2705 0.0427
vn -0.5076 0.6377 -0.5793
vn -0.9463 -0.3163 0.0664
vn -0.0720 -0.1964 0.9779
usemtl Material.001
s off
f 17/27/28 26/28/28 19/29/28 30/30/28
f 17/31/29 27/32/29 26/28/29
f 26/28/30 25/33/30 19/29/30
f 23/34/31 18/35/31 21/36/31
f 25/33/32 22/37/32 21/36/32
f 28/38/33 32/39/33 18/35/33
f 18/35/34 27/32/34 28/38/34
f 20/40/35 34/41/35 33/42/35
f 25/33/36 36/43/36 19/29/36
f 21/36/37 20/40/37 36/43/37
f 31/44/38 36/43/38 20/40/38
f 31/44/39 19/29/39 36/43/39
f 30/45/40 35/46/40 29/47/40 27/32/40
f 30/48/41 19/29/41 31/44/41 33/42/41 34/41/41 35/49/41
f 20/40/42 21/36/42 18/50/42 32/51/42
f 24/52/43 27/32/43 18/35/43 23/34/43
f 21/36/44 22/37/44 23/34/44
f 22/37/45 25/33/45 26/28/45 24/52/45 23/34/45
f 24/52/46 26/28/46 27/32/46
f 28/38/47 29/47/47 32/39/47
f 30/45/48 27/32/48 17/31/48
f 27/32/49 29/47/49 28/38/49
f 20/40/50 32/53/50 34/41/50
f 20/40/51 33/42/51 31/44/51
f 29/54/52 35/49/52 34/41/52
f 34/41/53 32/53/53 29/54/53
f 25/33/54 21/36/54 36/43/54
o Cube.004
v 0.217088 2.837241 -0.541676
v 0.206255 3.282798 -0.418682
v -0.363423 2.822950 0.568229
v -0.358112 3.287081 0.427169
v 0.219788 3.282262 0.421545
v 0.260036 2.974065 -0.535861
v 0.245439 2.735722 0.013680
v -0.341656 2.743895 0.014593
v -0.456401 3.023371 0.007746
v 0.263332 2.947623 0.035750
v -0.061235 3.297793 -0.418412
v -0.056895 3.297927 0.421176
v 0.246279 3.072664 0.007780
v 0.235834 2.807244 0.012528
v 0.253165 2.996693 0.543182
v 0.273839 2.974065 -0.194630
v 0.235227 3.282351 -0.167116
v 0.232889 2.827144 0.571833
v -0.462272 3.023546 0.537856
v -0.405235 2.927076 0.527771
v -0.078800 2.978111 0.552950
v -0.409479 3.130821 0.472066
v -0.479670 3.018486 0.314717
v -0.437675 3.110745 0.081165
v -0.465067 3.023371 -0.338256
v -0.330180 3.284658 -0.421342
v -0.446666 3.022400 -0.503319
v 0.252688 3.093358 -0.489979
v -0.349725 2.835096 -0.541822
v -0.396315 3.205046 -0.454800
v -0.154946 2.987419 -0.535875
v -0.402353 2.905076 -0.539427
vt 0.486054 0.375000
vt 0.540681 0.374267
vt 0.502486 0.498889
vt 0.500000 0.875000
vt 0.543248 0.875000
vt 0.500000 0.954562
vt 0.375121 0.749910
vt 0.250000 0.750000
vt 0.250000 0.502530
vt 0.875000 0.625000
vt 0.874791 0.750000
vt 0.623673 0.627808
vt 0.375000 0.375000
vt 0.412696 0.375000
vt 0.375000 0.499298
vt 0.375000 0.250000
vt 0.625747 0.750000
vt 0.548241 0.250000
vt 0.500000 0.328465
vt 0.500000 0.250000
vt 0.586420 0.000000
vt 0.499967 0.096287
vt 0.500000 0.000000
vt 0.625000 0.500000
vt 0.625000 0.323799
vt 0.624587 0.245561
vt 0.443693 0.750000
vt 0.494098 0.632115
vt 0.500000 0.748180
vt 0.552722 0.750000
vt 0.500000 0.796866
vt 0.625000 0.750747
vt 0.623549 0.999806
vt 0.375000 0.875000
vt 0.423337 0.000000
vt 0.624079 0.125000
vt 0.500000 1.000426
vt 0.125000 0.762901
vt 0.801201 0.500000
vt 0.875000 0.500000
vt 0.125000 0.500000
vt 0.586420 1.000000
vt 0.423337 1.000000
vt 0.375000 1.000000
vt 0.375000 -0.012901
vt 0.623549 0.000000
vn 0.9906 0.1366 0.0066
vn -0.9815 0.1897 0.0246
vn -0.0136 -0.9899 0.1408
vn -0.0488 0.9988 0.0001
vn 0.9911 0.1331 0.0005
vn 0.9908 0.1326 -0.0263
vn -0.0361 0.9993 -0.0040
vn 0.9962 0.0769 -0.0403
vn 0.0060 -0.9868 0.1618
vn -0.0740 0.2750 -0.9586
vn 0.9930 0.1177 0.0039
vn 0.9969 0.0744 0.0262
vn 0.9870 0.1485 0.0621
vn 0.9551 0.2753 -0.1095
vn -0.0550 -0.1360 0.9892
vn 0.0211 0.3939 0.9189
vn 0.0093 0.2733 0.9619
vn -0.0068 0.1103 0.9939
vn -0.9621 0.2639 -0.0687
vn -0.8873 0.4602 -0.0305
vn -0.9217 -0.3803 -0.0759
vn 0.0116 0.3596 -0.9330
vn -0.0752 0.2673 -0.9607
vn 0.0039 0.3529 -0.9356
vn -0.0260 0.4234 0.9056
vn -0.9068 -0.4212 -0.0165
vn 0.9818 -0.1852 -0.0432
vn -0.8832 -0.4655 0.0568
vn -0.0140 -0.9868 -0.1615
vn -0.9105 0.4106 0.0483
vn 0.0531 0.9986 -0.0013
vn 0.0038 -0.9837 -0.1800
vn 0.0565 0.9984 0.0016
vn 0.0198 0.1643 0.9862
vn 0.9923 0.1227 0.0179
vn 0.0059 0.3806 0.9247
vn 0.9931 -0.1172 0.0094
vn 0.9794 -0.1983 0.0388
vn 0.9412 -0.3371 -0.0210
vn -0.9193 0.3885 0.0633
vn -0.1220 0.3165 0.9407
vn -0.8904 -0.4538 -0.0345
vn -0.8926 0.4495 -0.0354
vn 0.0158 0.3519 -0.9359
vn 0.0006 0.0401 -0.9992
vn 0.0024 0.0360 -0.9993
vn -0.0092 0.3939 -0.9191
usemtl Material.001
s off
f 46/55/55 49/56/55 51/57/55
f 45/58/56 60/59/56 61/60/56
f 39/61/57 44/62/57 43/63/57
f 47/64/58 62/65/58 48/66/58
f 43/67/59 50/68/59 54/69/59
f 37/70/60 50/68/60 43/67/60
f 48/66/61 62/65/61 40/71/61
f 64/72/62 52/73/62 42/74/62
f 54/69/63 39/61/63 43/63/63
f 66/75/64 67/76/64 63/77/64
f 49/56/65 41/78/65 51/57/65
f 41/78/66 49/56/66 53/79/66
f 52/73/67 49/56/67 46/55/67
f 53/79/68 64/72/68 38/80/68
f 56/81/69 57/82/69 55/83/69
f 48/66/70 51/57/70 41/78/70
f 48/66/71 40/71/71 58/84/71
f 57/82/72 39/61/72 54/69/72
f 59/85/73 60/59/73 45/58/73
f 60/59/74 40/86/74 62/87/74
f 44/88/75 59/85/75 45/58/75
f 67/76/76 64/72/76 42/74/76
f 67/76/77 68/89/77 63/77/77
f 67/76/78 66/75/78 47/90/78
f 48/66/79 58/84/79 55/83/79 57/82/79
f 61/60/80 63/91/80 44/88/80 45/58/80
f 37/70/81 46/55/81 50/68/81
f 59/85/82 44/88/82 39/61/82 56/81/82 55/83/82
f 43/63/83 44/62/83 65/92/83
f 58/84/84 40/86/84 60/59/84 59/85/84 55/83/84
f 47/64/85 48/66/85 53/93/85 38/94/85
f 65/92/86 37/95/86 43/63/86
f 41/78/87 53/93/87 48/66/87
f 51/57/88 57/82/88 54/69/88
f 52/73/89 64/72/89 53/79/89 49/56/89
f 51/57/90 48/66/90 57/82/90
f 54/69/91 50/68/91 51/57/91
f 51/57/92 50/68/92 46/55/92
f 52/73/93 46/55/93 37/70/93 42/74/93
f 61/60/94 62/87/94 66/96/94 63/91/94
f 56/81/95 39/61/95 57/82/95
f 68/97/96 65/98/96 44/88/96 63/91/96
f 62/87/97 61/60/97 60/59/97
f 47/90/98 38/80/98 64/72/98 67/76/98
f 42/74/99 37/70/99 65/99/99 67/76/99
f 65/99/100 68/89/100 67/76/100
f 47/90/101 66/75/101 62/100/101
